<svg height="512pt" viewBox="-57 0 512 512" width="512pt" xmlns="http://www.w3.org/2000/svg"><path d="m200.003906 452c-5.519531 0-10 4.480469-10 10s4.480469 10 10 10c5.519532 0 10-4.480469 10-10s-4.480468-10-10-10zm0 0"/><path d="m335.390625 42.488281c-11.472656-25.808593-37.136719-42.488281-65.386719-42.488281-2.617187 0-5.222656 1.078125-7.074218 2.929688l-14.136719 14.140624c-1.863281 1.863282-4.441407 2.929688-7.070313 2.929688h-83.441406c-2.628906 0-5.207031-1.066406-7.066406-2.933594l-14.140625-14.136718c-1.875-1.875-4.417969-2.929688-7.070313-2.929688-28.214844 0-53.867187 16.578125-65.390625 42.488281l-63.75 143.449219c-2.171875 4.886719-.113281 10.617188 4.667969 13.007812l40 20c4.9375 2.46875 10.945312.464844 13.414062-4.472656l46.96875-93.933594 13.898438 69.496094-59.632812 310.074219c-.5625 2.929687.214843 5.957031 2.113281 8.257813 1.898437 2.300781 4.726562 3.632812 7.710937 3.632812h260c2.980469 0 5.808594-1.332031 7.707032-3.632812 1.902343-2.300782 2.675781-5.328126 2.113281-8.257813l-59.632813-310.074219 13.898438-69.496094 46.96875 93.933594c2.472656 4.949219 8.484375 6.9375 13.414062 4.472656l40-20c4.78125-2.390624 6.839844-8.121093 4.667969-13.003906zm-289.859375 154.097657-22.511719-11.257813 10.050781-22.613281 23.515626 11.757812zm36.578125 295.414062 3.84375-20h74.050781c5.519532 0 10-4.476562 10-10s-4.480468-10-10-10h-70.203125l48.460938-252h45.5625l-12.765625 25.527344c-2.46875 4.941406-.46875 10.945312 4.472656 13.417968 4.9375 2.464844 10.945312.46875 13.417969-4.472656l11.054687-22.113281 11.054688 22.113281c2.472656 4.949219 8.488281 6.9375 13.417968 4.472656 4.9375-2.472656 6.941407-8.476562 4.472657-13.417968l-12.765625-25.527344h45.558594l48.460937 252h-70.199219c-5.523437 0-10 4.476562-10 10s4.476563 10 10 10h74.046875l3.84375 20zm206.566406-411.910156c-4.234375.566406-7.640625 3.761718-8.480469 7.949218l-18.390624 91.960938h-123.605469l-18.390625-91.960938c-.839844-4.1875-4.242188-7.382812-8.480469-7.949218-4.226563-.570313-8.359375 1.617187-10.269531 5.4375l-35.527344 71.058594-24.328125-12.167969 41.6875-93.804688c7.628906-17.15625 24.113281-28.992187 43.125-30.460937l11.054687 11.058594c5.585938 5.585937 13.316407 8.789062 21.210938 8.789062h83.441406c7.894532 0 15.625-3.203125 21.210938-8.789062l11.054687-11.054688c18.753907 1.453125 35.40625 13.082031 43.125 30.453125l41.6875 93.804687-24.328125 12.167969-35.527344-71.054687c-1.910156-3.820313-6.042968-6.003906-10.269531-5.4375zm65.800781 116.496094-11.058593-22.113282 23.515625-11.761718 10.050781 22.617187zm0 0"/></svg>