<svg id="Layer_1" enable-background="new 0 0 495.994 495.994" height="512" viewBox="0 0 495.994 495.994" width="512" xmlns="http://www.w3.org/2000/svg"><path d="m264.001 382.731c-3.846-6.135-5.878-13.205-5.878-20.446 0-237.555 0 331.237 0-346.285 0-8.837-7.163-16-16-16h-116.377c-9.535 0-16.973 8.309-15.898 17.798l39.99 353.632c1.937 17.122 8.276 33.565 18.335 47.553l41.001 57.021c8.85 12.308 23.336 19.991 38.952 19.991 37.803 0 60.717-41.716 40.763-73.553zm-17.895 81.132c-4.445-.579-8.334-2.902-10.951-6.542l-41.001-57.021c-6.867-9.551-11.196-20.777-12.519-32.467l-37.977-335.833h82.466v41.794h-43.032c-8.837 0-16 7.163-16 16s7.163 16 16 16h43.032v256.491c0 13.26 3.723 26.207 10.764 37.441l24.887 39.709c7.167 11.437-2.241 26.182-15.669 24.428z"/><path d="m378.889 422.441-24.888-39.71c-3.846-6.135-5.878-13.205-5.878-20.446 0-237.555 0 331.237 0-346.285 0-8.837-7.163-16-16-16h-41.853c-8.837 0-16 7.163-16 16s7.163 16 16 16h25.854v41.794h-23.032c-8.837 0-16 7.163-16 16s7.163 16 16 16h23.032v256.491c0 13.26 3.723 26.207 10.764 37.441l24.887 39.709c6.567 10.478-.782 24.15-13.031 24.556-8.832.291-15.756 7.686-15.465 16.518.291 8.821 7.671 15.755 16.518 15.465 36.894-1.215 58.705-42.24 39.092-73.533z"/></svg>