<?xml version="1.0"?>
<svg xmlns="http://www.w3.org/2000/svg" viewBox="0 0 512 512" width="512" height="512"><g id="outline"><path d="M388.266,167.766a56.035,56.035,0,0,0-45.346-31.394L335.2,86.164a80.128,80.128,0,0,0-158.39,0l-7.725,50.208a56.01,56.01,0,0,0-45.33,31.37l-82.961,172.8a8.007,8.007,0,0,0,3.289,10.438l68.486,38.516L96.2,462.242a8,8,0,0,0,5.274,9.344A474.614,474.614,0,0,0,251.9,496h8.2a474.614,474.614,0,0,0,150.429-24.414,8,8,0,0,0,5.274-9.344l-16.369-72.749,68.486-38.516a8.007,8.007,0,0,0,3.289-10.438ZM192.617,88.6a64.128,64.128,0,0,1,126.766,0l7.289,47.4H312V114.594a56,56,0,0,0-112,0V136H185.328ZM256,166.383l-40-26.664V114.594a40,40,0,0,1,80,0v25.125ZM58.461,340.7l79.727-166.062a39.906,39.906,0,0,1,27.584-21.628l-49.54,220.178ZM182.4,152h23.18l10.609,7.073A7.385,7.385,0,0,0,216,160v48a8,8,0,0,0,16,0V169.615l16,10.666V479.926a458.548,458.548,0,0,1-134.594-21.285ZM264,479.926V180.281l16-10.666V208a8,8,0,0,0,16,0V160a7.422,7.422,0,0,0-.187-.927L306.422,152H329.6l68.992,306.641A458.548,458.548,0,0,1,264,479.926ZM395.768,373.191l-49.54-220.178a39.943,39.943,0,0,1,27.6,21.651L453.539,340.7Z"/><path d="M224,448a238.117,238.117,0,0,1-75.406-12.234l-2.055-.688a8,8,0,0,0-5.078,15.172l2.062.688A253.958,253.958,0,0,0,224,464a8,8,0,0,0,0-16Z"/><path d="M296.008,447.867c-.094,0-.18,0-.266.008-2.578.078-5.156.125-7.742.125a8,8,0,0,0,0,16q4.137,0,8.258-.141a8,8,0,0,0-.25-15.992Z"/><path d="M320.109,454.031a7.993,7.993,0,0,0,7.883,6.7,7.432,7.432,0,0,0,1.305-.109,254.517,254.517,0,0,0,39.18-9.687,8,8,0,0,0-5.063-15.172,239.607,239.607,0,0,1-36.711,9.078A7.991,7.991,0,0,0,320.109,454.031Z"/><circle cx="288" cy="248" r="8"/><circle cx="288" cy="296" r="8"/><circle cx="288" cy="344" r="8"/><circle cx="288" cy="392" r="8"/></g></svg>
