<svg height="511pt" viewBox="0 -34 511.99979 511" width="511pt" xmlns="http://www.w3.org/2000/svg"><path d="m511.636719 368.222656c-1.566407-8.550781-3.921875-21.378906-5.742188-31.191406 2.636719-5.300781 3.789063-11.386719 3.066407-17.648438-8.75-75.308593-27.003907-142.171874-40.773438-185.007812-1.292969-4.019531-5.597656-6.230469-9.621094-4.9375-4.019531 1.292969-6.230468 5.597656-4.941406 9.621094 13.5625 42.179687 31.535156 108.011718 40.144531 182.082031.867188 7.523437-3.527343 14.550781-10.679687 17.089844-8.46875 3-18.199219 4.988281-29.753906 6.078125-7.796876.738281-14.972657-4.199219-17.054688-11.738282l-47.222656-170.679687c.269531-35.007813 14.828125-59.390625 45.609375-76.097656 2.183593 5.480469 5.394531 13.800781 9.226562 24.523437 1.121094 3.125 4.0625 5.074219 7.203125 5.074219.855469 0 1.722656-.144531 2.574219-.449219 3.976563-1.421875 6.046875-5.796875 4.625-9.773437-7.398437-20.699219-12.457031-32.46875-12.667969-32.960938-.382812-.886719-.929687-1.695312-1.613281-2.378906-35.871094-35.867187-90.515625-55.574219-92.824219-56.394531-.09375-.035156-.183594-.066406-.277344-.09375l-4.90625-1.535156c-7.632812-6.492188-19.746093-8.25-24.902343-8.996094-16.03125-2.316406-37.269531-2.3125-61.855469-2.308594h-6.503906c-24.582032-.003906-45.824219-.007812-61.855469 2.308594-5.078125.734375-16.90625 2.449218-24.554687 8.707031-1.90625.613281-3.75 1.246094-5.601563 1.941406-3.15625 1.132813-57.183594 20.804688-92.753906 56.375-.683594.683594-1.230469 1.488281-1.613281 2.375-.46875 1.09375-47.527344 111.269531-63.328126 247.179688-.722656 6.261719.425782 12.34375 3.066407 17.644531-1.820313 9.8125-4.175781 22.640625-5.742188 31.191406-1.730469 9.460938 2.824219 18.816406 11.339844 23.285156 8.054687 4.226563 21.238281 9.21875 38.554687 9.21875h.804688c10.582031-.097656 19.542969-7.757812 21.3125-18.21875l4.683594-27.734374c6.367187-4.050782 11.261718-10.382813 13.398437-18.121094l32.496094-117.457032v139.496094c0 11.175782 4.375 21.515625 11.886719 29.101563v2.425781c0 29.992188 52.085937 52.609375 121.160156 52.609375 69.066406 0 121.148438-22.617187 121.148438-52.609375v-2.417969c7.523437-7.585937 11.898437-17.929687 11.898437-29.109375v-139.496094l32.496094 117.453126c2.140625 7.738281 7.03125 14.070312 13.402343 18.121093l4.683594 27.738281c1.765625 10.460938 10.730469 18.121094 21.3125 18.214844.269532.003906.535156.003906.804688.003906 17.3125 0 30.5-4.992187 38.554687-9.21875 8.511719-4.46875 13.066407-13.824218 11.335938-23.285156zm-137.882813-205.34375v195.8125c0 9.847656-5.644531 19.007813-14.378906 23.339844-17.558594 8.714844-49.75 19.097656-103.375 19.097656s-85.8125-10.382812-103.375-19.097656c-8.734375-4.332031-14.378906-13.492188-14.378906-23.339844v-195.8125c0-40.511718-16.941406-69.871094-51.691406-89.453125 15.984374-13.898437 34.816406-24.925781 50.128906-32.648437 4.996094 8.695312 13.921875 20.207031 27.015625 34.882812 1.511719 1.691406 3.605469 2.554688 5.707031 2.554688 1.8125 0 3.632812-.640625 5.089844-1.945313 3.152344-2.808593 3.425781-7.644531.617187-10.796875-13.71875-15.367187-20.898437-25.113281-24.585937-31.277344 3.699218-1.652343 6.886718-2.996093 9.382812-4.011718 2.195313 8.140625 11.703125 22.96875 46.125 57.96875 22.144532 22.511718 44.582032 43.039062 44.808594 43.242187 1.460938 1.335938 3.308594 2.003907 5.15625 2.003907 1.851562 0 3.699219-.667969 5.160156-2.003907.222656-.203125 22.664063-20.730469 44.804688-43.242187 34.429687-35.003906 43.9375-49.832032 46.128906-57.972656 2.503906 1.015624 5.703125 2.363281 9.414062 4.019531-15.695312 26.5-76.203124 85.125-105.496093 112.242187-10.738281-9.976562-36.492188-34.203125-60.28125-58.847656-2.933594-3.039062-7.773438-3.125-10.8125-.191406-3.039063 2.933594-3.125 7.773437-.191407 10.8125 31.226563 32.351562 65.773438 63.957031 66.117188 64.273437 1.460938 1.332031 3.308594 2 5.160156 2 1.847656 0 3.695313-.667969 5.15625-2 10.105469-9.234375 93.265625-85.742187 114.128906-121.742187 15.308594 7.71875 34.148438 18.746094 50.160157 32.675781-34.753907 19.585937-51.695313 48.945313-51.695313 89.457031zm-180.671875-144.933594c14.941407-2.160156 36.65625-2.152343 59.664063-2.152343h6.507812c23.015625.003906 44.722656-.007813 59.664063 2.152343 5.523437.796876 18.332031 3.175782 18.460937 8.050782-1.019531 7.929687-32.191406 43.933594-81.378906 89.371094-49.1875-45.4375-80.359375-81.441407-81.375-89.371094.125-4.875 12.9375-7.253906 18.457031-8.050782zm-135.789062 362.015626c-.53125 3.140624-3.210938 5.441406-6.367188 5.46875-14.550781.125-25.488281-3.988282-32.117187-7.464844-2.554688-1.339844-3.921875-4.148438-3.398438-6.988282 1.03125-5.636718 2.40625-13.140624 3.746094-20.410156 1.472656.800782 3.019531 1.503906 4.644531 2.078125 9.667969 3.425781 20.601563 5.679688 33.425781 6.890625 1.171876.113282 2.335938.148438 3.492188.128906zm18.421875-47.386719c-2.082032 7.535156-9.253906 12.46875-17.050782 11.734375-11.554687-1.089844-21.289062-3.078125-29.75-6.078125-7.160156-2.539063-11.554687-9.566407-10.683593-17.082031 13.1875-113.425782 48.476562-208.566407 59.109375-235.351563 30.773437 16.707031 45.328125 41.089844 45.597656 76.09375zm257.726562 82.332031c-20.5625 8.144531-48.0625 12.628906-77.441406 12.628906-29.382812 0-56.886719-4.484375-77.449219-12.628906-11.363281-4.503906-19.796875-9.894531-24.410156-15.394531 20.164063 8.417969 52.691406 16.910156 101.859375 16.910156 49.15625 0 81.679688-8.488281 101.847656-16.902344-4.617187 5.496094-13.046875 10.882813-24.40625 15.386719zm159.75-36.941406c-6.628906 3.476562-17.597656 7.589844-32.117187 7.464844-3.15625-.027344-5.835938-2.328126-6.363281-5.46875l-3.429688-20.296876c1.15625.019532 2.320312-.015624 3.496094-.128906 12.820312-1.210937 23.753906-3.464844 33.421875-6.890625 1.625-.578125 3.175781-1.277343 4.644531-2.078125 1.339844 7.265625 2.714844 14.769532 3.75 20.410156.519531 2.839844-.847656 5.648438-3.402344 6.988282zm0 0"/></svg>