<?xml version="1.0" encoding="iso-8859-1"?>
<!-- Generator: Adobe Illustrator 19.0.0, SVG Export Plug-In . SVG Version: 6.00 Build 0)  -->
<svg version="1.1" id="Layer_1" xmlns="http://www.w3.org/2000/svg" xmlns:xlink="http://www.w3.org/1999/xlink" x="0px" y="0px"
	 viewBox="0 0 511.894 511.894" style="enable-background:new 0 0 511.894 511.894;" xml:space="preserve">
<g>
	<g>
		<path d="M444.77,222.187c-0.213,0-0.427-0.107-0.64-0.107c-12.053-1.6-21.867-7.573-29.867-18.347
			c-39.573-52.587-19.52-190.08-19.307-191.467c0.853-5.867-3.093-11.307-8.96-12.16C385.463,0,384.93,0,384.396,0h-46.72
			c-5.547,0-10.133,4.16-10.667,9.707l-7.253,79.36c-2.133,24.107-20.373,43.733-44.16,47.68l-19.627,3.307l-19.627-3.307
			c-23.893-4.053-42.027-23.573-44.16-47.68l-7.253-79.36C184.396,4.16,179.81,0,174.263,0H127.65
			c-5.867,0-10.667,4.8-10.667,10.667c0,0.533,0,1.173,0.107,1.707c0.213,1.387,22.187,137.173-17.387,190.293
			c-8.427,11.307-18.88,17.6-31.787,19.307c-5.867,0.747-10.027,6.08-9.28,11.947c0,0.107,0,0.213,0,0.32
			c0.213,1.493,24,154.773,0.107,264.747c-1.28,5.76,2.347,11.413,8.107,12.693c0.747,0.213,1.493,0.213,2.24,0.213h373.333
			c5.867,0,10.667-4.8,10.667-10.667c0-0.853-0.107-1.6-0.32-2.453c-27.52-119.467,0.107-262.613,0.427-264.107
			C454.37,228.907,450.53,223.253,444.77,222.187z M429.516,490.667H82.423c17.6-96.533,3.84-214.613-0.96-249.6
			c14.187-4.053,26.027-12.693,35.627-25.493C154.85,164.8,144.93,58.027,140.13,21.44h24.64l6.293,69.653
			c3.093,33.813,28.48,61.227,61.973,66.773l21.44,3.52c1.173,0.213,2.347,0.213,3.52,0l21.44-3.52
			c33.387-5.653,58.88-33.067,61.973-66.773l6.293-69.653h24.747c-4.267,36.693-12.907,144.96,24.96,195.2
			c9.067,12.053,20.267,20.16,33.28,24.213C424.716,274.987,408.823,387.413,429.516,490.667z"/>
	</g>
</g>
<g>
</g>
<g>
</g>
<g>
</g>
<g>
</g>
<g>
</g>
<g>
</g>
<g>
</g>
<g>
</g>
<g>
</g>
<g>
</g>
<g>
</g>
<g>
</g>
<g>
</g>
<g>
</g>
<g>
</g>
</svg>
