<?xml version="1.0" encoding="utf-8"?>
<!-- Generator: Adobe Illustrator 23.0.2, SVG Export Plug-In . SVG Version: 6.00 Build 0)  -->
<svg version="1.1" id="Capa_1" xmlns="http://www.w3.org/2000/svg" xmlns:xlink="http://www.w3.org/1999/xlink" x="0px" y="0px"
	 viewBox="0 0 593.8 512" style="enable-background:new 0 0 593.8 512;" xml:space="preserve">
<style type="text/css">
	.st0{fill:#FFFEF5;}
</style>
<g>
	<g>
		<path class="st0" d="M513.8,368.6c-27-13.1-62.6-11.3-93.6-12.8c-32.3-1.5-57.7-29.5-56-63.2l9.9-194.9c0.2-4.1-3-7.7-7.1-7.9
			c-4.1-0.2-7.7,3-7.9,7.1l-5.3,105.3c-25.9-5.2-52.6,8.2-63.6,32.6c-11.8,26.3-2.8,52.9-22.9,74.6c-1.2-5.4-1.7-11.1-1.5-16.9
			C278.7,23.7,281.8,26,276.3,15h74.3c6.7,0,12.3,5.7,12,13.1L360.9,62c-0.2,4.1,3,7.7,7.1,7.9c4.1,0.2,7.7-3,7.9-7.1l1.7-33.9
			c0.4-7.6-2.4-15-7.5-20.5C364.9,3,358,0,350.6,0C319.3,0,91.2,0,66,0C51.4,0,40.1,12.5,40.9,27l13.4,229.4c0.2,4.1,3.8,7.3,7.9,7
			c4.1-0.2,7.3-3.8,7-7.9L55.9,26.1C55.6,20,60.3,15,66,15c197.8,0.2,186.4-0.4,189.4,0.4c5.2,1.4,9.1,6.5,8.8,12.6l-8.8,174.2
			c-30.5-6.1-63.4,13-69.1,51.4l-4.3,28.6c-3.7,24.9-24.2,43-48.8,43H73.4l-2-34.7c-0.2-4.1-3.8-7.3-7.9-7c-4.1,0.2-7.3,3.8-7,7.9
			c0.6,10.2,11.1,190.3,11.8,201.1c0.6,10.9,9.5,19.4,20.3,19.4c102.1,0,96,0.1,97.4-0.1c8.9-0.8,15.9-8.5,15.9-17.8v-8.7l29.5,18.3
			c8.9,5.5,19.2,8.5,29.7,8.5c6.7,0,256.1,0,264.6,0c15,0,27.3-12.4,27.3-27.7c0-9.8,0-31.1,0-41.9
			C552.9,405.5,540.1,381.3,513.8,368.6z M303.8,241c8.4-18.7,29.4-28.6,49.2-23.5l-3.8,74.4c-1.4,28.3,12.5,53.5,34.4,67.5
			c-49.3-7.3-76.4,5.6-102.1-22.7c-3.3-3.7-6.2-7.7-8.5-12C303.1,298.9,293,265.2,303.8,241z M439.5,448.8h-100
			c-4.1,0-7.5,3.4-7.5,7.5s3.4,7.5,7.5,7.5h100v20.4c0,7-5.5,12.7-12.3,12.7H261c-7.7,0-15.2-2.1-21.8-6.2l-29.9-18.6
			c-9.8-6.1-22.4,1.1-22.4,12.7v9.1c0,1.6-1.2,3-2.8,3H88.5c-2.8,0-5.2-2.3-5.4-5.3l-1.6-27.8h223c4.1,0,7.5-3.4,7.5-7.5
			s-3.4-7.5-7.5-7.5H80.7l-6.4-108.6h58.9c31.8,0,58.8-23.7,63.6-55.8c4.2-24.8,3.5-32.1,8.6-43.4c8.4-18.7,29.4-28.6,49.2-23.5
			l-3.8,74.4c-2.1,41.8,29.6,77.1,70.3,79c62.8,2.9,118.4-2.5,118.4,71.5V448.8L439.5,448.8z M525.6,497h-74.1
			c5.1-9.9,2.3-18.3,3-33.2h83.4v20.4l0,0C537.9,491.3,532.4,497,525.6,497z M537.9,448.8h-83.4c0-22.6-1.2-42.5-15-60.9
			c-5.4-7.2-12.1-12.8-19.7-17.1c62,2.8,118.1-2.6,118.1,71.5V448.8L537.9,448.8z"/>
	</g>
</g>
</svg>
