<?xml version="1.0" encoding="utf-8"?>
<!-- Generator: Adobe Illustrator 23.0.2, SVG Export Plug-In . SVG Version: 6.00 Build 0)  -->
<svg version="1.1" id="Capa_1" xmlns="http://www.w3.org/2000/svg" xmlns:xlink="http://www.w3.org/1999/xlink" x="0px" y="0px"
	 viewBox="0 0 512 512" style="enable-background:new 0 0 512 512;" xml:space="preserve">
<style type="text/css">
	.st0{fill:#FFFEF5;}
</style>
<g>
	<path class="st0" d="M496,338.8l-0.5-0.8c-15.8-25.6-41.6-43.9-70.8-50.3l-38.5-8.4c-12.5-2.7-24.5-7.1-35.8-12.9
		c-0.7-5.7-3.6-11.2-8.5-15c-4.8-3.7-10.7-5.4-16.7-4.7c-1.1,0.1-2.1,0.4-3.1,0.6c-3.5-3-6.8-6.1-10-9.4c0-0.1,0.1-0.2,0.1-0.4
		c1.9-5.8,1.4-11.9-1.3-17.3c-2.7-5.4-7.4-9.4-13.2-11.3c-2.7-0.9-5.4-1.2-8.2-1.1c-2.1-3.7-4-7.5-5.8-11.3c6.3-5,9.7-13.2,8.2-21.7
		c-1.8-10.2-10.2-17.6-20-18.6c-0.6-4.1-1-8.2-1.2-12.3c9.1-3,15.6-11.5,15.6-21.6c0-10.1-6.7-18.8-15.9-21.7V62.8
		c0-16.7-13.6-30.3-30.3-30.3h-33.9c-38.1,0-70.2,27.1-76.9,64h-22.6c-4.1,0-7.5,3.4-7.5,7.5s3.4,7.5,7.5,7.5h41.1
		c2.1,0,3.9,1.7,3.9,3.9v51.9c0,9.9-8.1,18-18,18H54.9c-9.9,0-18-8.1-18-18v-51.9c0-2.1,1.7-3.9,3.9-3.9h33.1c4.1,0,7.5-3.4,7.5-7.5
		s-3.4-7.5-7.5-7.5H40.8c-10.4,0-18.9,8.5-18.9,18.9v51.9c0,8.7,3.4,16.6,8.9,22.5v53.3c0,4.1,3.4,7.5,7.5,7.5s7.5-3.4,7.5-7.5
		v-44.1c2.9,0.8,6,1.3,9.2,1.3h26.4c-7.1,9.4-11.1,21-11.1,33.1c0,30.3,24.7,55,55,55c30.3,0,55-24.7,55-55c0-17.4-8.4-33.7-22-44
		c5.3-5.9,8.5-13.6,8.5-22.1v-51.9c0-10.4-8.5-18.9-18.9-18.9h-3.2c6.5-28.4,31.7-49,61.6-49h33.9c8.4,0,15.3,6.9,15.3,15.3v36.7
		h-35.6c-12.5,0-22.7,10.2-22.7,22.7s10.2,22.7,22.7,22.7h35.9c0.3,4.3,0.7,8.7,1.3,12.9l-34.5,6.1c-6,1.1-11.2,4.4-14.7,9.3
		c-3.5,5-4.8,11-3.8,17c1.1,6,4.4,11.2,9.3,14.7c3.9,2.7,8.4,4.1,13,4.1c1.3,0,2.7-0.1,4-0.4l39.2-6.9c1.7,3.8,3.5,7.5,5.5,11.1
		L241.3,230c-5.4,2.7-9.4,7.4-11.3,13.2s-1.4,11.9,1.3,17.3c4,7.9,12,12.5,20.3,12.5c3.4,0,6.9-0.8,10.2-2.4l39.1-19.7h0
		c0.6-0.3,1.2-0.6,1.8-1c2.2,2.2,4.4,4.3,6.7,6.4L283,289.8c-7.7,9.9-6,24.2,3.9,31.9c4,3.2,8.9,4.8,13.9,4.8c0.9,0,1.9-0.1,2.8-0.2
		c6-0.7,11.4-3.8,15.1-8.5l27-34.5c0.4-0.6,0.9-1.2,1.2-1.8c11.4,5.5,23.5,9.7,36,12.5l38.5,8.4c25.3,5.5,47.6,21.4,61.3,43.5
		l0.5,0.8c9,14.6,13.7,31.3,13.7,48.4v0.2v1.5H215.3l-69.1-69.1c-10.4-10.4-24.3-16.2-39.1-16.2H45.7v-35.3c0-4.1-3.4-7.5-7.5-7.5
		s-7.5,3.4-7.5,7.5v39.9l-10,10.9C7.4,341.6,0,360.6,0,380.4v78.1c0,10.4,8.5,18.9,18.9,18.9h116.4c10.4,0,18.9-8.5,18.9-18.9v-15.4
		l48.8,33.1c3.1,2.1,6.8,3.2,10.6,3.2h160.9c4.1,0,7.5-3.4,7.5-7.5s-3.4-7.5-7.5-7.5H213.6c-0.8,0-1.5-0.2-2.2-0.7l-60.5-41
		c-2.3-1.6-5.3-1.7-7.7-0.4c-2.5,1.3-4,3.9-4,6.6v29.5c0,2.1-1.7,3.9-3.9,3.9H18.9c-2.1,0-3.9-1.7-3.9-3.9v-46.8h482v48.8
		c0,2.1-1.7,3.9-3.9,3.9h-85.6c-4.1,0-7.5,3.4-7.5,7.5s3.4,7.5,7.5,7.5h85.6c10.4,0,18.9-8.5,18.9-18.9v-65.3v-0.2
		C512,375.2,506.5,355.7,496,338.8L496,338.8z M165.3,233.6c0,22.1-18,40-40,40s-40-18-40-40c0-13.3,6.6-25.7,17.6-33.1h31
		c3.8,0,7.5-0.7,10.9-1.9C157.2,205.6,165.3,219.1,165.3,233.6L165.3,233.6z M212.2,122.3c0-4.2,3.5-7.7,7.7-7.7h43.8
		c4.2,0,7.7,3.5,7.7,7.7s-3.5,7.7-7.7,7.7h-43.8C215.6,130,212.2,126.5,212.2,122.3z M227.8,194c-2,0.4-4.1-0.1-5.8-1.3
		c-1.7-1.2-2.8-2.9-3.2-5c-0.4-2,0.1-4.1,1.3-5.8s2.9-2.8,5-3.2l43.1-7.6c0.5-0.1,0.9-0.1,1.3-0.1c3.7,0,6.9,2.6,7.6,6.4
		c0.7,4.2-2.1,8.2-6.3,8.9L227.8,194z M294.1,237.4L255,257.2c-3.8,1.9-8.4,0.4-10.4-3.4c-0.9-1.8-1.1-3.9-0.4-5.9s2-3.5,3.8-4.5
		l39.1-19.7c1.1-0.6,2.3-0.8,3.5-0.8c0.8,0,1.6,0.1,2.4,0.4c2,0.6,3.5,2,4.5,3.8s1.1,3.9,0.4,5.9S295.9,236.5,294.1,237.4
		L294.1,237.4z M333.9,274l-27,34.5c-2.6,3.3-7.5,3.9-10.8,1.3s-3.9-7.5-1.3-10.8l27-34.5c1.3-1.6,3.1-2.7,5.1-2.9
		c0.3,0,0.6-0.1,1-0.1c1.7,0,3.4,0.6,4.7,1.6C336,265.8,336.6,270.7,333.9,274L333.9,274z M15,395.3v-14.9c0-16.1,6-31.4,16.8-43.3
		l9.7-10.6h65.6c10.7,0,20.9,4.2,28.5,11.8l58.5,58.5H15V395.3z"/>
	<path class="st0" d="M53.8,134.5c0,4.1,3.4,7.5,7.5,7.5h57.9c4.1,0,7.5-3.4,7.5-7.5s-3.4-7.5-7.5-7.5H61.3
		C57.2,127,53.8,130.4,53.8,134.5z"/>
	<path class="st0" d="M74.3,364.7h-26c-4.1,0-7.5,3.4-7.5,7.5s3.4,7.5,7.5,7.5h26c4.1,0,7.5-3.4,7.5-7.5S78.5,364.7,74.3,364.7z"/>
</g>
</svg>
