<svg id="Capa_1" enable-background="new 0 0 512 512" height="512" viewBox="0 0 512 512" width="512" xmlns="http://www.w3.org/2000/svg"><g><path d="m496.031 338.809-.489-.793c-15.771-25.561-41.592-43.891-70.839-50.288l-38.513-8.425c-12.485-2.731-24.514-7.073-35.815-12.878-.728-5.735-3.621-11.197-8.523-15.03-4.776-3.736-10.719-5.389-16.744-4.653-1.061.13-2.093.356-3.108.626-3.462-2.965-6.8-6.099-9.976-9.373.041-.119.095-.231.135-.351 1.896-5.761 1.436-11.916-1.298-17.33-2.732-5.415-7.411-9.441-13.172-11.337-2.683-.883-5.449-1.233-8.188-1.103-2.082-3.685-4.013-7.466-5.769-11.314 6.294-5.021 9.728-13.243 8.234-21.715-1.799-10.206-10.19-17.619-20.026-18.639-.576-4.086-.967-8.212-1.199-12.341 9.063-2.982 15.626-11.522 15.626-21.57 0-10.142-6.684-18.75-15.878-21.656v-37.792c0-16.694-13.581-30.275-30.274-30.275h-33.885c-38.136 0-70.196 27.127-76.924 64.015h-22.578c-4.143 0-7.5 3.358-7.5 7.5s3.357 7.5 7.5 7.5h41.067c2.144 0 3.887 1.744 3.887 3.887v51.929c0 9.933-8.08 18.014-18.013 18.014h-78.863c-9.933 0-18.014-8.081-18.014-18.014v-51.929c0-2.144 1.744-3.887 3.888-3.887h33.058c4.143 0 7.5-3.358 7.5-7.5s-3.357-7.5-7.5-7.5h-33.058c-10.415 0-18.888 8.473-18.888 18.887v51.929c0 8.672 3.366 16.569 8.854 22.466v53.302c0 4.142 3.357 7.5 7.5 7.5s7.5-3.358 7.5-7.5v-44.057c2.911.842 5.982 1.303 9.16 1.303h26.406c-7.114 9.423-11.12 20.999-11.12 33.138 0 30.345 24.688 55.033 55.032 55.033 30.346 0 55.033-24.688 55.033-55.033 0-17.402-8.389-33.728-22.022-44.012 5.308-5.861 8.547-13.629 8.547-22.14v-51.929c0-10.415-8.473-18.887-18.887-18.887h-3.184c6.472-28.414 31.736-49.015 61.618-49.015h33.885c8.422 0 15.274 6.852 15.274 15.275v36.74h-35.625c-12.521 0-22.706 10.186-22.706 22.707s10.187 22.706 22.707 22.706h35.916c.252 4.33.661 8.657 1.256 12.946l-34.506 6.084c-5.973 1.053-11.179 4.37-14.657 9.338-3.479 4.969-4.814 10.995-3.761 16.967 1.053 5.973 4.368 11.178 9.337 14.657 3.86 2.703 8.358 4.112 12.975 4.112 1.325 0 2.66-.116 3.992-.351l39.249-6.92c1.683 3.752 3.507 7.454 5.473 11.075l-33.878 17.1c-5.415 2.733-9.441 7.411-11.338 13.172s-1.436 11.916 1.298 17.33c3.99 7.906 12.003 12.473 20.308 12.473 3.437 0 6.924-.782 10.195-2.434l39.098-19.735h-.001c.609-.308 1.195-.648 1.769-1.003 2.169 2.184 4.412 4.299 6.702 6.358l-26.293 33.621c-7.713 9.862-5.964 24.161 3.898 31.874 4.033 3.155 8.9 4.824 13.942 4.824.929 0 1.865-.057 2.802-.171 6.021-.736 11.394-3.772 15.131-8.55l26.98-34.499c.448-.573.857-1.164 1.241-1.765 11.438 5.532 23.51 9.723 35.993 12.453l38.513 8.425c25.295 5.533 47.631 21.393 61.276 43.509l.489.793c8.987 14.564 13.737 31.307 13.737 48.421v.154 1.5h-281.696l-69.077-69.069c-10.435-10.433-24.308-16.178-39.062-16.178h-61.419v-35.348c0-4.142-3.357-7.5-7.5-7.5s-7.5 3.358-7.5 7.5v39.931l-9.988 10.906c-13.386 14.618-20.758 33.585-20.758 53.406v78.119c0 10.415 8.473 18.887 18.887 18.887h116.379c10.414 0 18.887-8.473 18.887-18.887v-15.395l48.833 33.052c3.138 2.124 6.798 3.246 10.586 3.246h160.934c4.143 0 7.5-3.358 7.5-7.5s-3.357-7.5-7.5-7.5h-160.935c-.779 0-1.533-.231-2.179-.668l-60.536-40.974c-2.298-1.556-5.269-1.716-7.72-.414-2.452 1.301-3.984 3.85-3.984 6.625v29.527c0 2.144-1.743 3.887-3.887 3.887h-116.378c-2.144 0-3.887-1.744-3.887-3.887v-46.768h482v48.783c0 2.144-1.743 3.888-3.887 3.888h-85.618c-4.143 0-7.5 3.358-7.5 7.5s3.357 7.5 7.5 7.5h85.618c10.414 0 18.887-8.473 18.887-18.888v-65.283-.154c0-19.896-5.522-39.363-15.969-56.293zm-330.773-105.254c0 22.074-17.959 40.033-40.033 40.033s-40.032-17.958-40.032-40.033c0-13.285 6.567-25.664 17.568-33.138h31.009c3.816 0 7.479-.658 10.891-1.855 12.583 7.017 20.597 20.489 20.597 34.993zm46.9-111.262c0-4.25 3.457-7.707 7.706-7.707h43.797c4.249 0 7.706 3.457 7.706 7.707s-3.457 7.707-7.706 7.707h-43.797c-4.249 0-7.706-3.457-7.706-7.707zm15.653 71.688c-2.026.358-4.07-.095-5.758-1.276-1.686-1.181-2.812-2.947-3.169-4.975-.357-2.027.096-4.072 1.276-5.758s2.947-2.812 4.976-3.169l43.131-7.605c.45-.08.898-.118 1.342-.118 3.667 0 6.927 2.635 7.586 6.369.737 4.185-2.067 8.19-6.252 8.928zm66.252 43.443-39.098 19.735c-3.796 1.915-8.438.387-10.354-3.407-.928-1.838-1.084-3.927-.44-5.882s2.01-3.543 3.849-4.471l39.098-19.735c1.093-.552 2.274-.831 3.465-.831.811 0 1.625.129 2.417.39 1.955.644 3.543 2.01 4.471 3.848s1.084 3.927.44 5.882-2.011 3.544-3.848 4.471zm39.872 36.604-26.98 34.498c-2.617 3.347-7.472 3.941-10.818 1.323s-3.94-7.471-1.322-10.818l26.98-34.499c1.268-1.622 3.092-2.652 5.135-2.902.317-.039.635-.058.95-.058 1.711 0 3.363.566 4.732 1.638 3.347 2.617 3.94 7.47 1.323 10.818zm-318.935 121.229v-14.851c0-16.062 5.974-31.431 16.82-43.276l9.726-10.621h65.619c10.748 0 20.854 4.186 28.456 11.786l58.469 58.462h-179.09z"/><path d="m53.828 134.5c0 4.142 3.357 7.5 7.5 7.5h57.926c4.143 0 7.5-3.358 7.5-7.5s-3.357-7.5-7.5-7.5h-57.926c-4.142 0-7.5 3.358-7.5 7.5z"/><path d="m74.323 364.663h-25.99c-4.143 0-7.5 3.358-7.5 7.5s3.357 7.5 7.5 7.5h25.99c4.143 0 7.5-3.358 7.5-7.5s-3.357-7.5-7.5-7.5z"/></g></svg>