<?xml version="1.0" encoding="utf-8"?>
<!-- Generator: Adobe Illustrator 23.0.2, SVG Export Plug-In . SVG Version: 6.00 Build 0)  -->
<svg version="1.1" id="Layer_1" xmlns="http://www.w3.org/2000/svg" xmlns:xlink="http://www.w3.org/1999/xlink" x="0px" y="0px"
	 viewBox="0 0 512 512" style="enable-background:new 0 0 512 512;" xml:space="preserve">
<style type="text/css">
	.st0{fill:#FFFEF5;}
</style>
<g id="Outline">
	<path class="st0" d="M496,471.1l-39-350.7c-1-8.6-6.5-16-14.4-19.4l-47.4-20.3c-0.1,0-0.2-0.1-0.3-0.1l0,0l-60.7-22.8L319.4,21
		c-1.1-2.7-3.6-4.6-6.5-5c-0.3,0-0.6,0-0.9,0v0H200v0c-0.3,0-0.6,0-0.9,0c-2.9,0.3-5.4,2.2-6.5,5l-16,40c-0.8,2-0.8,4.2,0.1,6.2
		l32,72c1.8,4,6.5,5.9,10.6,4.1c0.6-0.3,1.2-0.6,1.8-1.1l27-21.6v294.1l-21.7,65.1c-31.2-1.8-60-17.4-78.4-42.7l-19.8-86V93.5
		l37.5-14.1l-5.6-15l-42.7,16c-0.3,0.1-0.5,0.2-0.8,0.4l0,0l-43.2,21.6c-4.6,2.3-8.4,6.1-10.7,10.7L18.5,201
		c-1.7,3.3-2.5,7-2.5,10.7v128.4c0,3.7,0.9,7.4,2.5,10.7l70.3,140.6c2,4,6.8,5.6,10.7,3.6c0.3-0.1,0.6-0.3,0.9-0.5l48-32
		c0.1-0.1,0.2-0.2,0.3-0.3C171.1,483.9,201,496,232,496c3.4,0,6.5-2.2,7.6-5.5l16.4-49.2l16.4,49.2c1.1,3.3,4.1,5.5,7.6,5.5
		c66.3,0,120-53.7,120-120c0,0,0,0,0,0v-2.4l24.2,116c0.9,4.3,5.1,7.1,9.5,6.2c0.2,0,0.4-0.1,0.6-0.1l56-16
		C494,478.6,496.4,475,496,471.1L496,471.1z M99.1,476.3L32.8,343.8c-0.6-1.1-0.8-2.3-0.8-3.6V211.8c0-1.2,0.3-2.5,0.8-3.6
		l43.9-87.9c0.8-1.5,2-2.8,3.6-3.6l31.7-15.8v197.9l-16.4-53.2l-15.3,4.7l31.9,103.7l13.5,58.7l-33.9,20.4l8.2,13.7l29.5-17.7
		l5.4,23.2L99.1,476.3z M319.3,63.8l-26.4,59.4l-26-20.8l43.2-61.7L319.3,63.8z M256,90.1L243.4,72h25.3L256,90.1z M279.8,56h-47.7
		l-16.8-24h81.3L279.8,56z M219.1,123.3l-26.4-59.4l9.2-23.1l43.2,61.7L219.1,123.3z M384,376c0,55.2-43.1,100.8-98.3,103.8
		L264,414.7V120.6l27,21.6c3.5,2.8,8.5,2.2,11.2-1.2c0.4-0.5,0.8-1.1,1.1-1.8l28.9-65.1L384,93.5L384,376z M438.1,477.9L400,295.2
		v-195l36.3,15.5c2.6,1.1,4.5,3.6,4.8,6.5l34.5,310.7l-29.5,7.4l3.9,15.5l27.4-6.9l1.9,17.3L438.1,477.9z"/>
	<path class="st0" d="M360,192h-64c-4.4,0-8,3.6-8,8v56c0,3,1.7,5.8,4.4,7.2l32,16c2.3,1.1,4.9,1.1,7.2,0l32-16
		c2.7-1.4,4.4-4.1,4.4-7.2v-56C368,195.6,364.4,192,360,192z M352,251.1l-24,12l-24-12V208h48V251.1z"/>
	<path class="st0" d="M216,160h16v16h-16V160z"/>
	<path class="st0" d="M216,240h16v16h-16V240z"/>
	<path class="st0" d="M216,320h16v16h-16V320z"/>
	<path class="st0" d="M216,400h16v16h-16V400z"/>
</g>
</svg>
