<?xml version="1.0" encoding="utf-8"?>
<!-- Generator: Adobe Illustrator 23.0.2, SVG Export Plug-In . SVG Version: 6.00 Build 0)  -->
<svg version="1.1" id="Layer_1" xmlns="http://www.w3.org/2000/svg" xmlns:xlink="http://www.w3.org/1999/xlink" x="0px" y="0px"
	 viewBox="0 0 511 511" style="enable-background:new 0 0 511 511;" xml:space="preserve">
<style type="text/css">
	.st0{fill:#FFFEF5;}
</style>
<path class="st0" d="M482.9,404.9c-77.1-77.1-139.6-186.5-147.9-201.3v-33.5c0-6.7,1.4-17.5,4.2-32.2c0.8-4.1-1.9-8.1-6-8.9
	c-4.1-0.8-8.1,1.9-8.9,6c-2.2,11.3-3.5,20.3-4.1,27.4H191.9c-2.2-25.8-13.9-71.9-16.8-83c2.8-6.5,7.1-10.8,13.2-13
	c19.6-7.3,52.9,7.6,64,14c2.3,1.3,5.2,1.3,7.5,0c11.2-6.4,44.4-21.3,64.1-14c6.1,2.3,10.4,6.5,13.2,13c-1.1,4.3-3.6,14.1-6.3,25.8
	c-1,4.1,1.6,8.2,5.7,9.1c4.1,1,8.2-1.6,9.1-5.7c3.6-15.5,6.8-27.6,6.9-27.7c0.4-1.5,0.3-3-0.2-4.5c-3.3-9.3-8.7-16.3-16.2-20.9
	c-0.7-10.6-4.6-36-25.4-53.7c-1.7-1.5-4-2.1-6.2-1.7c-2.2,0.4-4.1,1.7-5.3,3.6c-0.7,1.1-15.1,25.7-17.1,50.7
	c-1.2,0.4-2.3,0.8-3.5,1.2c-9.8,3.4-18,7.3-22.5,9.6c-4.5-2.3-12.7-6.2-22.5-9.6c-1.2-0.4-2.3-0.8-3.5-1.2
	c-2.1-25-16.5-49.6-17.1-50.7c-1.1-1.9-3.1-3.3-5.3-3.6c-2.2-0.4-4.5,0.3-6.2,1.7c-20.8,17.8-24.7,43.2-25.4,53.7
	c-7.4,4.6-12.9,11.6-16.2,20.9c-0.5,1.4-0.6,3-0.2,4.5c0.2,0.6,17.3,65.6,17.3,89.1v33.5c-8.3,14.8-70.8,124.2-147.9,201.3
	c-1.5,1.5-2.3,3.6-2.2,5.8c0.1,2.1,1.1,4.1,2.8,5.5c0.8,0.7,19.2,15.5,51,32.2c0,0,0,0,0,0c-1.3,1.6-1.9,3.7-1.6,5.8
	c0.3,2.1,1.4,3.9,3.1,5.1c0.6,0.4,14.6,10.4,38.9,21.5c1,0.5,2.1,0.7,3.2,0.7c2.9,0,5.6-1.6,6.9-4.4c1.8-3.8,0.1-8.3-3.7-10.1
	c-13.4-6.2-23.6-12-29.7-15.8c61.8-81.1,110.2-192.7,110.7-193.8c1.7-3.8-0.1-8.3-4-10c-3.9-1.7-8.3,0.1-10,4
	C194,252.4,148.6,357,90.1,436c-20.7-10.7-35.9-20.8-44-26.6c72.6-74.9,131.1-175.3,143-196.3H323c11.9,21,70.4,121.4,143,196.3
	c-8.1,5.8-23.2,15.9-44,26.6c-58.5-79-103.9-183.6-104.4-184.7c-1.6-3.9-6.1-5.6-10-4c-3.9,1.7-5.6,6.1-4,10
	c0.5,1.1,48.9,112.7,110.7,193.8c-19.5,11.9-80,44.7-158.3,44.7c-33.7,0-67.7-6-101.1-17.7c-4-1.4-8.3,0.7-9.7,4.6
	c-1.4,3.9,0.7,8.3,4.6,9.7c35,12.3,70.7,18.6,106.1,18.6c100.2,0,170.9-49.7,173.8-51.8c1.7-1.2,2.8-3,3.1-5.1
	c0.3-2.1-0.3-4.1-1.5-5.8c0,0,0,0,0,0c31.8-16.6,50.1-31.5,51-32.2c1.7-1.4,2.7-3.4,2.8-5.5C485.3,408.5,484.5,406.4,482.9,404.9z
	 M307.6,20.5c7.9,9.9,11.1,21.4,12.4,29.4c-6.6-1-14.1-0.8-22.2,0.6C299.7,39.1,304.1,27.9,307.6,20.5z M204.5,20.5
	c3.5,7.5,8,18.7,9.8,30c-8.2-1.4-15.6-1.6-22.2-0.6C193.4,41.9,196.6,30.4,204.5,20.5z M319.9,197.9H192.2v-20.2h127.6V197.9z"/>
</svg>
