<?xml version="1.0" encoding="utf-8"?>
<!-- Generator: Adobe Illustrator 23.0.2, SVG Export Plug-In . SVG Version: 6.00 Build 0)  -->
<svg version="1.1" id="Layer_1" xmlns="http://www.w3.org/2000/svg" xmlns:xlink="http://www.w3.org/1999/xlink" x="0px" y="0px"
	 viewBox="0 0 512 512" style="enable-background:new 0 0 512 512;" xml:space="preserve">
<style type="text/css">
	.st0{fill:#FFFEF5;}
</style>
<path class="st0" d="M257,452c-5.5,0-10,4.5-10,10s4.5,10,10,10s10-4.5,10-10S262.5,452,257,452z"/>
<path class="st0" d="M392.4,42.5C380.9,16.7,355.3,0,327,0c-2.6,0-5.2,1.1-7.1,2.9l-14.1,14.1c-1.9,1.9-4.4,2.9-7.1,2.9h-83.4
	c-2.6,0-5.2-1.1-7.1-2.9L194.1,2.9C192.2,1.1,189.7,0,187,0c-28.2,0-53.9,16.6-65.4,42.5L57.9,185.9c-2.2,4.9-0.1,10.6,4.7,13l40,20
	c4.9,2.5,10.9,0.5,13.4-4.5l47-93.9l13.9,69.5l-59.6,310.1c-0.6,2.9,0.2,6,2.1,8.3s4.7,3.6,7.7,3.6h260c3,0,5.8-1.3,7.7-3.6
	c1.9-2.3,2.7-5.3,2.1-8.3L337.2,190l13.9-69.5l47,93.9c2.5,4.9,8.5,6.9,13.4,4.5l40-20c4.8-2.4,6.8-8.1,4.7-13L392.4,42.5z
	 M102.5,196.6L80,185.3l10.1-22.6l23.5,11.8L102.5,196.6z M139.1,492l3.8-20H217c5.5,0,10-4.5,10-10s-4.5-10-10-10h-70.2l48.5-252
	h45.6l-12.8,25.5c-2.5,4.9-0.5,10.9,4.5,13.4c4.9,2.5,10.9,0.5,13.4-4.5l11.1-22.1l11.1,22.1c2.5,4.9,8.5,6.9,13.4,4.5
	c4.9-2.5,6.9-8.5,4.5-13.4L273.2,200h45.6l48.5,252H297c-5.5,0-10,4.5-10,10s4.5,10,10,10h74l3.8,20H139.1z M345.7,80.1
	c-4.2,0.6-7.6,3.8-8.5,7.9l-18.4,92H195.2l-18.4-92c-0.8-4.2-4.2-7.4-8.5-7.9c-4.2-0.6-8.4,1.6-10.3,5.4l-35.5,71.1l-24.3-12.2
	l41.7-93.8c7.6-17.2,24.1-29,43.1-30.5l11.1,11.1c5.6,5.6,13.3,8.8,21.2,8.8h83.4c7.9,0,15.6-3.2,21.2-8.8L331,20.2
	c18.8,1.5,35.4,13.1,43.1,30.5l41.7,93.8l-24.3,12.2l-35.5-71.1C354,81.7,349.9,79.5,345.7,80.1z M411.5,196.6l-11.1-22.1l23.5-11.8
	l10.1,22.6L411.5,196.6z"/>
</svg>
