<?xml version="1.0" encoding="utf-8"?>
<!-- Generator: Adobe Illustrator 23.0.2, SVG Export Plug-In . SVG Version: 6.00 Build 0)  -->
<svg version="1.1" id="Layer_1" xmlns="http://www.w3.org/2000/svg" xmlns:xlink="http://www.w3.org/1999/xlink" x="0px" y="0px"
	 viewBox="0 0 512 511" style="enable-background:new 0 0 512 511;" xml:space="preserve">
<style type="text/css">
	.st0{fill:#FFFEF5;}
</style>
<path class="st0" d="M441,419.9c5.5,0,10-4.5,10-10c0-5.5-4.5-10-10-10c-5.5,0-10,4.5-10,10C431,415.4,435.5,419.9,441,419.9z"/>
<path class="st0" d="M1.4,200.2c2.3,11.4,6.2,22,11.6,31.8C30.7,263.6,39,296.6,39,326.4v123.4c0,5.5,4.5,10,10,10h40
	c5.5,0,10-4.5,10-10V338.3c0-22.5,5.2-45.2,15-65.5l0.9-1.5c47.4,39.4,85.3,89.7,110,145.9c11.4,25.9,36.6,42.6,64.3,42.6H371
	c39.5,0,70.5-0.8,93.6-4.8c11.5-2,46.4-8,46.4-35.2c0-15.4-12.8-37.8-32.5-57c-13.3-12.9-41.2-35.4-79.2-41c-3-0.4-5.9,0.5-8.2,2.5
	c-9.9,8.9-29.3,15.4-46.2,15.4c-23.9,0-49.3-13.7-59-31.8c-0.2-0.4-0.4-0.7-0.6-1l-66.8-95.2C177.3,152.8,128,100,72,54.7
	c-3.6-3-8.9-3-12.5,0C43.9,67.1,30.9,82,20.8,98.9c-19.4,32.6-25.7,69.8-19.5,101C1.3,200,1.4,200.1,1.4,200.2z M79,338.3v101.6H59
	V326.4c0-3-0.1-6.2-0.3-9.6c-3-54.8-26.9-91-31.3-100.9c25.4,11.8,49.4,26.1,71.8,42.9C88.3,276.4,79,307,79,338.3z M38,109.2
	c7.5-12.6,16.8-23.9,27.9-33.7c51.9,42.9,97.8,92.6,136.4,147.8l66.4,94.8c13.3,24.3,45.3,41.8,76.3,41.8c19.7,0,41.8-7,55.7-17.4
	c30.3,5.8,52.9,24.1,63.9,34.8c17.4,16.9,26.4,34.2,26.4,42.6c0,8.6-16.2,13.2-29.8,15.5c-21.7,3.7-51.8,4.5-90.2,4.5h-81.8
	c-19.7,0-37.8-12-46-30.6c-43.3-98.5-123.3-176.9-223.2-218.3C16.4,166.3,21.9,136.1,38,109.2z"/>
<path class="st0" d="M289,419.9h112c5.5,0,10-4.5,10-10c0-5.5-4.5-10-10-10H289c-5.5,0-10,4.5-10,10
	C279,415.4,283.5,419.9,289,419.9z"/>
</svg>
