<?xml version="1.0" encoding="utf-8"?>
<!-- Generator: Adobe Illustrator 23.0.2, SVG Export Plug-In . SVG Version: 6.00 Build 0)  -->
<svg version="1.1" id="Layer_1" xmlns="http://www.w3.org/2000/svg" xmlns:xlink="http://www.w3.org/1999/xlink" x="0px" y="0px"
	 viewBox="0 0 512 512" style="enable-background:new 0 0 512 512;" xml:space="preserve">
<style type="text/css">
	.st0{fill:#FFFEF5;}
</style>
<g>
	<g>
		<path class="st0" d="M464.9,213c7.4-41.4,5.5-96-12.9-117.3c-17.3-20.1-66.1-38.3-79.2-42.9l-19.5-38.9C349.1,5.3,340.5,0,330.9,0
			H181.1c-9.6,0-18.2,5.3-22.5,13.9l-19.5,38.9c-13,4.6-61.8,22.8-79.2,42.9C41.6,117,39.6,171.7,47.1,213
			c-2.2,9.6-11.9,55-3.1,94.9c-0.5,7.7-3.1,49.2-2.1,64.4c0.9,12.7,4.8,23.7,11.2,32.3l-1,31.3c-0.4,9.9,5,19.1,13.8,23.6
			c0.1,0.1,0.2,0.1,0.3,0.1l62,27.9v7.9c0,9.1,7.4,16.6,16.6,16.6h222.3c9.1,0,16.6-7.4,16.6-16.6v-7.9l62-27.9
			c0.1,0,0.2-0.1,0.3-0.1c8.9-4.5,14.3-13.7,13.8-23.7l-1.6-30.5c6.8-8.7,10.9-20,11.8-33c1-15.2-1.6-56.7-2.1-64.4
			C476.8,268,467.2,222.6,464.9,213z M449.2,209.7l-43.6,18.1c-1.2-5.3-2.7-10.7-4.8-16.1v-32.6c0-1.5,0.9-36.5,42.9-67
			C453.3,131.1,455.9,172.4,449.2,209.7z M433.2,100c-47.8,35.3-48.4,77.2-48.4,79.1v26.2H264v-79.5c44.4-10.1,91.5-46.6,104.8-57.4
			C385,74.1,416.6,86.9,433.2,100z M387.1,306.8c3.5,11.3,10.4,40,2.3,69.5H264v-69.5H387.1z M264,290.7v-69.5h123.2
			c9.8,29.3,3.2,58.1-0.2,69.5H264z M339.2,21.6C339.2,21.5,339.3,21.5,339.2,21.6l17.9,35.6c-13.8,11-55,42.1-93.1,52.1V89.4
			C275.5,81.9,310.1,57.9,339.2,21.6z M143.2,68.4c13.3,10.8,60.4,47.2,104.8,57.4v79.5H127.2V179c0-1.8-0.6-43.8-48.4-79.1
			C95.4,87,127,74.1,143.2,68.4z M68.3,112.1c42,30.4,42.9,65.4,42.9,66.9v32.7c-2.1,5.4-3.6,10.8-4.8,16.1l-43.6-18.1
			C56.1,172.4,58.7,131.1,68.3,112.1z M60.7,226.2l43.2,17.9c-2,25.6,4.1,46.9,6.7,54.6c-1.4,4.1-3.9,12.1-5.7,22.6l-45.8-19
			C53.6,274.2,57.8,242.5,60.7,226.2z M57.9,371.2c-0.7-10.6,0.6-36.3,1.5-51.5l43.7,18.2c-0.9,14.1,0.1,30.4,5.4,47
			c-0.9,5.1-3.1,18.6-4.1,30.9l-25.1-10.4C62.2,398.2,58.5,380.9,57.9,371.2z M73,445.1c-3.1-1.6-5-5-4.9-8.5c0,0,0-0.1,0-0.1
			l0.6-18.5c1.4,0.8,2.9,1.5,4.4,2.1l31.3,13c1.5,11,6.4,21.2,14.1,29.2c2.5,2.6,5.1,4.8,8,6.8L73,445.1z M248,496H144.8
			c-0.3,0-0.5-0.2-0.5-0.5v-18.7c3.4,0.7,6.8,1.1,10.4,1.1H248L248,496L248,496z M248,461.8h-93.3c-19.5,0-34.7-15.8-34.7-36
			c0-10.2,2.1-25,3.5-33.5H248V461.8z M248,376.3H122.6c-8.1-29.3-1.2-58.2,2.3-69.5H248V376.3z M248,290.7H125
			c-3.4-11.3-9.9-40.2-0.2-69.5H248V290.7z M248,109.3c-38-10-79.3-41-93.1-52.1l17.8-35.7c0,0,0,0.1,0.1,0.1
			c29.1,36.4,63.7,60.4,75.2,67.8V109.3z M189,16H323c-26,31-56.2,52.3-67,59.4C245.2,68.3,215,47.1,189,16z M367.7,495.4
			c0,0.3-0.2,0.5-0.5,0.5H264v-18.2h93.3c3.5,0,7-0.4,10.4-1.1L367.7,495.4L367.7,495.4z M357.3,461.8H264v-69.5h124.6
			c1.4,8.5,3.5,23.3,3.5,33.5C392.1,446,376.8,461.8,357.3,461.8z M439,445.1l-53.4,24c2.8-1.9,5.5-4.2,8-6.8
			c7.7-8,12.6-18.2,14.1-29.2l31.3-13c1.4-0.6,2.7-1.2,4.1-1.9l0.9,18.4C444,440.1,442.1,443.4,439,445.1z M454.1,371.2
			c-0.6,9.7-4.3,27-21.4,34.1l-25.1,10.4c-1-12.3-3.2-25.8-4.1-30.9c5.3-16.6,6.3-32.9,5.4-47l43.7-18.2
			C453.5,334.9,454.8,360.7,454.1,371.2z M452.8,302.3l-45.8,19c-1.8-10.5-4.3-18.5-5.7-22.6c2.6-7.7,8.7-29,6.7-54.6l43.2-17.9
			C454.2,242.5,458.4,274.2,452.8,302.3z"/>
	</g>
</g>
</svg>
