<svg height="512" viewBox="0 0 60 61" width="512" xmlns="http://www.w3.org/2000/svg"><g id="004---Jacket"><path id="Shape" d="m.24 47.06c-.1335524.5145622-.05674922 1.0611234.2134441 1.518951.27019333.4578276.71154257.7892469 1.2265559.921049 6.3 1.62 6 1.55 6.31 1.55.91330247.0016017 1.71167544-.615697 1.94-1.5l.77-3c.3073809-.1384429.5990452-.3094186.87-.51.06 2.8-.16-6.16.2 10.06.0489254 2.1739134 1.8255362 3.9105505 4 3.91h28.46c2.1744638.0005505 3.9510746-1.7360866 4-3.91.2-9.21.14-7 .2-10.06.2709548.2005814.5626191.3715571.87.51l.77 3c.1296122.5168598.4601229.9606273.918205 1.2328482s1.0058568.3503853 1.521795.2171518l5.81-1.49c.5150133-.1318021.9563626-.4632214 1.2265559-.921049s.3469965-1.0043888.2134441-1.518951l-.77-3c.9445187-1.254891 1.2444912-2.8806675.81-4.39l-6.66-23.14c-.8128199-2.7657832-3.2380748-4.7504435-6.11-5-1.72-1.86-3.47-2.17-5.32-2.71l-1.71-6.1c-.75-2.51-7.4-2.73-10-2.73s-9.24.22-10 2.73l-1.7 6.1c-2.1.61-3.66.9-5.33 2.71-2.8719252.2495565-5.2971801 2.2342168-6.11 5l-6.66 23.13c-.43731483 1.5077784-.14107249 3.1334083.8 4.39zm7.75 2-5.81-1.5.53-2.07c.72.37.71.34 4.7 1.35.36328554.0925132.73537593.1461478 1.11.16zm5.78 7-.06-3h11.29v5h-9.23c-.5321701.0000067-1.0423993-.2120792-1.4177609-.5893175-.3753615-.3772384-.5849-.888519-.5822391-1.4206825zm30.46 2h-9.23v-5.06h11.29l-.06 3c0 1.1045695-.8954305 2-2 2zm7.78-9-.53-2.06c.3775637-.0105457.7529672-.060823 1.12-.15 4-1 4-1 4.69-1.35l.53 2.07zm-.79-31.96 6.66 23.13c.2953152 1.0241564.0250387 2.1281027-.71 2.9-.8.82-1.32.82-5.06 1.77-1.546826.4044744-3.1390634-.4752148-3.62-2l.51-26.26c.0140829-.9002205-.1384839-1.7952794-.45-2.64 1.2970009.5978264 2.2710234 1.7287139 2.67 3.1zm-5.43-4c.8072157.9814794 1.2364395 2.2194883 1.21 3.49l-.67 34.41h-11.33c-1.1045695 0-2 .8954305-2 2v5h-2v-34h.23c.7212964.0137646 1.3941053-.3619947 1.760698-.9833382.3665926-.6213435.3701472-1.3919629.009302-2.0166618l-1.33-2.21c4.4943263-.7000721 8.3131342-3.6614425 10.11-7.84 1.53.43 2.79.69 4.01 2.17zm-6.73-6.25.94 3.15c-1.5468844 3.6897569-4.9192074 6.2949523-8.88 6.86.3269722-2.1029409 1.5928789-3.9429215 3.44-5 1.9796801-1.1673021 3.5511155-2.91683355 4.5-5.01zm-5.57 3.29c-1.4834006.8687527-2.6927285 2.1369876-3.49 3.66-.7896084-1.5284899-2.0007638-2.7986415-3.49-3.66-1.0097864-.59544587-1.9013137-1.37171871-2.63-2.29 4.0010992-1.13475135 8.2389008-1.13475135 12.24 0-.7286863.91828129-1.6202136 1.69455413-2.63 2.29zm-12.55-3.29c.9654515 2.09554082 2.5545276 3.8417782 4.55 5 1.8432973 1.0593177 3.105278 2.8989397 3.43 5-6.4-1.19-8.45-5.72-8.87-6.85zm9.06 13.09 1.23 2.06h-2.46zm8-16.74c-.0912748 1.0066972-.3622243 1.98888923-.8 2.9-4.6824646-1.48025557-9.7075354-1.48025557-14.39 0-.4412348-.91045559-.7155791-1.89267569-.81-2.9.61-.44 3.4-1.2 8-1.2s7.38.76 8 1.2zm-21 8.09 1.28-.37c1.7999668 4.1761565 5.6172272 7.1363267 10.11 7.84l-1.34 2.24c-.3562079.6169405-.3573625 1.3767843-.0030309 1.9948044.3543315.6180201 1.0106537 1.0009106 1.7230309 1.0051956h.23v34h-2v-5c0-1.1045695-.8954305-2-2-2h-11.33l-.67-34.42c-.0095505-2.4627317 1.6278415-4.6281825 4-5.29zm-14.88 28.94 6.66-23.13c.39897659-1.3712861 1.3729991-2.5021736 2.67-3.1-.3107462.8414568-.4633081 1.7330966-.45 2.63l.51 26.22c-.4808098 1.5199354-2.06640936 2.3983839-3.61 2-3.64-.85-4.27-.85-5.07-1.72-.73503871-.7718973-1.00531522-1.8758436-.71-2.9z"/><path id="Shape" d="m18 49h2c1.1045695 0 2-.8954305 2-2v-8c0-1.1045695-.8954305-2-2-2h-2c-1.1045695 0-2 .8954305-2 2v8c0 1.1045695.8954305 2 2 2zm0-10h2v8h-2z"/><path id="Shape" d="m40 37c-1.1045695 0-2 .8954305-2 2v8c0 1.1045695.8954305 2 2 2h2c1.1045695 0 2-.8954305 2-2v-8c0-1.1045695-.8954305-2-2-2zm0 10v-8h2v8z"/></g></svg>