<?xml version="1.0" encoding="utf-8"?>
<!-- Generator: Adobe Illustrator 23.0.2, SVG Export Plug-In . SVG Version: 6.00 Build 0)  -->
<svg version="1.1" id="Layer_1" xmlns="http://www.w3.org/2000/svg" xmlns:xlink="http://www.w3.org/1999/xlink" x="0px" y="0px"
	 viewBox="0 0 512 512" style="enable-background:new 0 0 512 512;" xml:space="preserve">
<style type="text/css">
	.st0{fill:#FFFEF5;}
</style>
<g>
	<path id="Shape" class="st0" d="M6.2,395c-1.1,4.3-0.5,8.9,1.8,12.7c2.3,3.8,6,6.6,10.3,7.7c52.9,13.6,50.4,13,53,13
		c7.7,0,14.4-5.2,16.3-12.6l6.5-25.2c2.6-1.2,5-2.6,7.3-4.3c0.5,23.5-1.3-51.7,1.7,84.4c0.4,18.2,15.3,32.8,33.6,32.8h238.9
		c18.3,0,33.2-14.6,33.6-32.8c1.7-77.3,1.2-58.8,1.7-84.4c2.3,1.7,4.7,3.1,7.3,4.3l6.5,25.2c1.1,4.3,3.9,8.1,7.7,10.3
		c3.8,2.3,8.4,2.9,12.8,1.8l48.8-12.5c4.3-1.1,8-3.9,10.3-7.7c2.3-3.8,2.9-8.4,1.8-12.7l-6.5-25.2c7.9-10.5,10.4-24.2,6.8-36.8
		l-55.9-194.2c-6.8-23.2-27.2-39.9-51.3-42c-14.4-15.6-29.1-18.2-44.7-22.7l-14.4-51.2C333.6,1.8,277.8,0,256,0s-77.6,1.8-83.9,22.9
		l-14.3,51.2c-17.6,5.1-30.7,7.6-44.7,22.7c-24.1,2.1-44.5,18.8-51.3,42L5.9,333c-3.7,12.7-1.2,26.3,6.7,36.8L6.2,395z M71.3,411.8
		l-48.8-12.6l4.4-17.4c6,3.1,6,2.9,39.4,11.3c3,0.8,6.2,1.2,9.3,1.3L71.3,411.8z M119.8,470.5l-0.5-25.2H214v42h-77.5
		c-4.5,0-8.7-1.8-11.9-4.9C121.5,479.2,119.8,474.9,119.8,470.5L119.8,470.5z M375.4,487.3H298v-42.5h94.8l-0.5,25.2
		c0,9.3-7.5,16.8-16.8,16.8V487.3z M440.7,411.8l-4.4-17.3c3.2-0.1,6.3-0.5,9.4-1.3c33.6-8.4,33.6-8.4,39.4-11.3l4.4,17.4
		L440.7,411.8z M434.1,143.5L490,337.7c2.5,8.6,0.2,17.9-6,24.3c-6.7,6.9-11.1,6.9-42.5,14.9c-13,3.4-26.3-4-30.4-16.8l4.3-220.4
		c0.1-7.6-1.2-15.1-3.8-22.2C422.6,122.5,430.8,132,434.1,143.5L434.1,143.5z M388.5,110c6.8,8.2,10.4,18.6,10.2,29.3l-5.6,288.8
		H298c-9.3,0-16.8,7.5-16.8,16.8v42h-16.8V201.4h1.9c6.1,0.1,11.7-3,14.8-8.3s3.1-11.7,0.1-16.9L270,157.7
		c37.7-5.9,69.8-30.7,84.9-65.8c12.8,3.6,23.4,5.8,33.7,18.2L388.5,110z M332,57.5l7.9,26.4c-13,31-41.3,52.8-74.5,57.6
		c2.7-17.7,13.4-33.1,28.9-42C310.9,89.7,324.1,75.1,332,57.5L332,57.5z M285.3,85.1c-12.5,7.3-22.6,17.9-29.3,30.7
		c-6.6-12.8-16.8-23.5-29.3-30.7c-8.5-5-16-11.5-22.1-19.2c33.6-9.5,69.2-9.5,102.7,0C301.3,73.6,293.8,80.1,285.3,85.1L285.3,85.1z
		 M180,57.5c8.1,17.6,21.4,32.2,38.2,42c15.5,8.9,26.1,24.3,28.8,42c-53.7-10-70.9-48-74.4-57.5L180,57.5z M256,167.4l10.3,17.3
		h-20.6L256,167.4z M323.1,26.9c-0.8,8.4-3,16.7-6.7,24.3c-39.3-12.4-81.5-12.4-120.8,0c-3.7-7.6-6-15.9-6.8-24.3
		c5.1-3.7,28.5-10.1,67.1-10.1C294.6,16.8,317.9,23.2,323.1,26.9z M146.9,94.8l10.7-3.1c15.1,35.1,47.1,59.9,84.9,65.8l-11.2,18.8
		c-3,5.2-3,11.6,0,16.7c3,5.2,8.5,8.4,14.5,8.4h1.9v285.4h-16.8v-42c0-9.3-7.5-16.8-16.8-16.8h-95.1l-5.6-288.9
		C113.2,118.5,127,100.3,146.9,94.8L146.9,94.8z M22,337.7l55.9-194.1c3.3-11.5,11.5-21,22.4-26c-2.6,7.1-3.9,14.5-3.8,22.1
		l4.3,220.1c-4,12.8-17.3,20.1-30.3,16.8C40,369.3,34.7,369.3,28,362C21.8,355.5,19.5,346.3,22,337.7z"/>
	<path class="st0" d="M155.3,411.3h16.8c9.3,0,16.8-7.5,16.8-16.8v-67.1c0-9.3-7.5-16.8-16.8-16.8h-16.8c-9.3,0-16.8,7.5-16.8,16.8
		v67.1C138.5,403.8,146,411.3,155.3,411.3z M155.3,327.3h16.8v67.1h-16.8V327.3z"/>
	<path class="st0" d="M339.9,310.6c-9.3,0-16.8,7.5-16.8,16.8v67.1c0,9.3,7.5,16.8,16.8,16.8h16.8c9.3,0,16.8-7.5,16.8-16.8v-67.1
		c0-9.3-7.5-16.8-16.8-16.8H339.9z M339.9,394.5v-67.1h16.8v67.1H339.9z"/>
</g>
</svg>
