<?xml version="1.0" encoding="utf-8"?>
<!-- Generator: Adobe Illustrator 23.0.2, SVG Export Plug-In . SVG Version: 6.00 Build 0)  -->
<svg version="1.1" id="Layer_1" xmlns="http://www.w3.org/2000/svg" xmlns:xlink="http://www.w3.org/1999/xlink" x="0px" y="0px"
	 viewBox="0 0 512 512" style="enable-background:new 0 0 512 512;" xml:space="preserve">
<style type="text/css">
	.st0{fill:#FFFEF5;}
</style>
<path class="st0" d="M272.5,395.1c-4-6.3-6.1-13.6-6.1-21.1c0-245.2,0,341.9,0-357.5c0-9.1-7.4-16.5-16.5-16.5H129.8
	c-9.8,0-17.5,8.6-16.4,18.4l41.3,365c2,17.7,8.5,34.6,18.9,49.1l42.3,58.9c9.1,12.7,24.1,20.6,40.2,20.6c39,0,62.7-43.1,42.1-75.9
	L272.5,395.1z M254,478.8c-4.6-0.6-8.6-3-11.3-6.8l-42.3-58.9c-7.1-9.9-11.6-21.4-12.9-33.5L148.3,33h85.1v43.1H189
	c-9.1,0-16.5,7.4-16.5,16.5s7.4,16.5,16.5,16.5h44.4V374c0,13.7,3.8,27.1,11.1,38.6l25.7,41C277.6,465.4,267.9,480.6,254,478.8
	L254,478.8z"/>
<path class="st0" d="M391.1,436.1l-25.7-41c-4-6.3-6.1-13.6-6.1-21.1c0-245.2,0,341.9,0-357.5C359.4,7.4,352,0,342.8,0h-43.2
	c-9.1,0-16.5,7.4-16.5,16.5S290.5,33,299.6,33h26.7v43.1h-23.8c-9.1,0-16.5,7.4-16.5,16.5s7.4,16.5,16.5,16.5h23.8V374
	c0,13.7,3.8,27.1,11.1,38.6l25.7,41c6.8,10.8-0.8,24.9-13.5,25.3c-9.1,0.3-16.3,7.9-16,17.1c0.3,9.1,7.9,16.3,17.1,16
	C388.8,510.7,411.4,468.4,391.1,436.1L391.1,436.1z"/>
</svg>
