<?xml version="1.0" encoding="utf-8"?>
<!-- Generator: Adobe Illustrator 23.0.2, SVG Export Plug-In . SVG Version: 6.00 Build 0)  -->
<svg version="1.1" id="Capa_1" xmlns="http://www.w3.org/2000/svg" xmlns:xlink="http://www.w3.org/1999/xlink" x="0px" y="0px"
	 viewBox="0 0 508.1 508.1" style="enable-background:new 0 0 508.1 508.1;" xml:space="preserve">
<style type="text/css">
	.st0{fill:#FFFEF5;}
</style>
<g>
	<g>
		<g>
			<path class="st0" d="M479.8,212.9c0.4-4.2,0.6-8,0.6-11.7c0-70.3-57.2-127.5-127.5-127.5c-37.6,0-72.5,16.2-96.8,44.7
				c-13.1-5.3-32.7-11.4-54.6-7c-5.5-38.9-38.4-68.1-78.6-68.1c-43.9,0-79.5,35.7-79.5,79.6c0,38.3,27.7,70.9,64.5,78
				c-0.1,0.4-0.2,0.9-0.3,1.3H96c-34.9,0-63.3,28.4-63.3,63.3c0,34,27,61.9,60.7,63.2c14.8,24.8,41.3,40,70.4,40
				c13.9,0,27.4-3.5,39.5-10.1c18.3,17.2,41.8,26.5,67.1,26.5c25.2,0,48.8-9.4,67.1-26.5c12.1,6.7,25.6,10.1,39.5,10.1
				c29.1,0,55.6-15.2,70.4-40c33.7-1.3,60.7-29.2,60.7-63.2C508,244.4,497.3,224.6,479.8,212.9z M59.7,122.9
				c0-34.8,28.3-63.2,63.2-63.2c32.2,0,58.6,23.7,62.6,54.9c-34.3,9.8-62.2,36.5-73.6,70.4C82.2,179.9,59.7,153.8,59.7,122.9z
				 M444.7,312.4h-7.3c0,0-14.8,40-60.5,40c-21.7,0-42-14.8-42-14.8s-22.7,31.1-64.5,31.1c-41.6,0-64.5-31.1-64.5-31.1
				s-18.1,14.8-42,14.8c-44.6,0-60.5-40-60.5-40H96c-25.8,0-46.9-21-46.9-46.9c0-25.8,21-46.9,46.9-46.9h26.3l0.7-7.5
				c4.3-48.1,44-84.3,92.3-84.3c28.3,0,45.7,11.9,45.7,11.9s30.7-48.6,92-48.6s111.1,49.8,111.1,111.1c0,11.8-1.9,20.4-1.9,20.4
				s29.4,10.5,29.4,43.8C491.6,291.4,470.6,312.4,444.7,312.4z"/>
		</g>
	</g>
	<g>
		<g>
			<path class="st0" d="M344.1,106.6V123c49.7,0,90.1,40.4,90.1,90.1h16.4C450.6,154.4,402.9,106.6,344.1,106.6z"/>
		</g>
	</g>
	<g>
		<g>
			<rect x="114.7" y="0.1" class="st0" width="16.4" height="31.7"/>
		</g>
	</g>
	<g>
		<g>
			
				<rect x="76" y="19.6" transform="matrix(0.9239 -0.3827 0.3827 0.9239 -4.8924 34.4739)" class="st0" width="16.4" height="19.8"/>
		</g>
	</g>
	<g>
		<g>
			<rect x="39" y="31.4" transform="matrix(0.7072 -0.707 0.707 0.7072 -19.5919 47.245)" class="st0" width="16.4" height="31.7"/>
		</g>
	</g>
	<g>
		<g>
			<polygon class="st0" points="23.5,72.9 17.2,88.1 35.5,95.7 41.8,80.4 			"/>
		</g>
	</g>
	<g>
		<g>
			
				<rect x="151.7" y="21.4" transform="matrix(0.3828 -0.9238 0.9238 0.3828 72.4346 167.5218)" class="st0" width="19.8" height="16.4"/>
		</g>
	</g>
	<g>
		<g>
			<rect y="114.8" class="st0" width="31.7" height="16.4"/>
		</g>
	</g>
	<g>
		<g>
			
				<rect x="19.6" y="153.5" transform="matrix(0.9239 -0.3826 0.3826 0.9239 -59.6043 23.5846)" class="st0" width="19.8" height="16.4"/>
		</g>
	</g>
	<g>
		<g>
			
				<rect x="206.4" y="76.1" transform="matrix(0.9239 -0.3827 0.3827 0.9239 -15.7872 89.1993)" class="st0" width="19.8" height="16.4"/>
		</g>
	</g>
	<g>
		<g>
			
				<rect x="182.7" y="39.1" transform="matrix(0.7071 -0.7071 0.7071 0.7071 24.7233 154.2669)" class="st0" width="31.7" height="16.4"/>
		</g>
	</g>
	<g>
		<g>
			
				<rect x="31.4" y="190.4" transform="matrix(0.7071 -0.7071 0.7071 0.7071 -126.5946 91.5712)" class="st0" width="31.7" height="16.4"/>
		</g>
	</g>
	<g>
		<g>
			<path class="st0" d="M249.9,406.6c0,0-41,39.9-41,60.4c0,22.6,18.4,41,41,41s41-18.4,41-41C290.9,446.5,249.9,406.6,249.9,406.6z
				 M249.9,491.6c-13.6,0-24.6-11-24.6-24.6c0-8.6,13-25.4,24.6-37.6c11.6,12.1,24.6,29,24.6,37.6
				C274.5,480.6,263.5,491.6,249.9,491.6z"/>
		</g>
	</g>
	<g>
		<g>
			<path class="st0" d="M422,382c0,0-41,39.9-41,60.4c0,22.6,18.4,41,41,41s41-18.4,41-41C462.9,422,422,382,422,382z M422,467
				c-13.6,0-24.6-11-24.6-24.6c0-8.6,13-25.4,24.6-37.6c11.6,12.1,24.6,29,24.6,37.6C446.5,456,435.5,467,422,467z"/>
		</g>
	</g>
	<g>
		<g>
			<path class="st0" d="M86,382c0,0-41,39.9-41,60.4c0,22.6,18.4,41,41,41s41-18.4,41-41C127,422,86,382,86,382z M86,467
				c-13.6,0-24.6-11-24.6-24.6c0-8.6,13-25.4,24.6-37.6c11.6,12.1,24.6,29,24.6,37.6C110.6,456,99.6,467,86,467z"/>
		</g>
	</g>
</g>
</svg>
