<?xml version="1.0" encoding="utf-8"?>
<!-- Generator: Adobe Illustrator 23.0.2, SVG Export Plug-In . SVG Version: 6.00 Build 0)  -->
<svg version="1.1" id="Layer_1" xmlns="http://www.w3.org/2000/svg" xmlns:xlink="http://www.w3.org/1999/xlink" x="0px" y="0px"
	 viewBox="0 0 512 512" style="enable-background:new 0 0 512 512;" xml:space="preserve">
<style type="text/css">
	.st0{fill:#FFFEF5;}
</style>
<g id="outline">
	<path class="st0" d="M388.3,167.8c-8.6-17.7-25.8-29.6-45.3-31.4l-7.7-50.2c-6.7-43.7-47.6-73.7-91.4-67c-34.6,5.3-61.7,32.4-67,67
		l-7.7,50.2c-19.6,1.8-36.8,13.7-45.3,31.4l-83,172.8c-1.8,3.8-0.4,8.4,3.3,10.4l68.5,38.5l-16.4,72.7c-0.9,4,1.4,8,5.3,9.3
		C150,487.8,200.8,496,251.9,496h8.2c51.1,0,101.9-8.2,150.4-24.4c3.9-1.3,6.2-5.3,5.3-9.3l-16.4-72.7l68.5-38.5
		c3.7-2.1,5.1-6.6,3.3-10.4L388.3,167.8z M192.6,88.6c5.4-35,38.1-59,73.1-53.6c27.7,4.3,49.4,26,53.6,53.6l7.3,47.4H312v-21.4
		c0-30.9-25.1-56-56-56s-56,25.1-56,56V136h-14.7L192.6,88.6z M256,166.4l-40-26.7v-25.1c0-22.1,17.9-40,40-40s40,17.9,40,40v25.1
		L256,166.4z M58.5,340.7l79.7-166.1c5.4-11.1,15.5-19.1,27.6-21.6l-49.5,220.2L58.5,340.7z M182.4,152h23.2l10.6,7.1
		c-0.1,0.3-0.1,0.6-0.2,0.9v48c0,4.4,3.6,8,8,8s8-3.6,8-8v-38.4l16,10.7v299.6c-45.7-0.4-91-7.5-134.6-21.3L182.4,152z M264,479.9
		V180.3l16-10.7V208c0,4.4,3.6,8,8,8s8-3.6,8-8v-48c0-0.3-0.1-0.6-0.2-0.9l10.6-7.1h23.2l69,306.6C355,472.4,309.7,479.6,264,479.9z
		 M395.8,373.2L346.2,153c12,2.6,22.2,10.6,27.6,21.7l79.7,166L395.8,373.2z"/>
	<path class="st0" d="M224,448c-25.6,0-51.1-4.1-75.4-12.2l-2.1-0.7c-4.2-1.4-8.7,0.9-10.1,5.1c-1.3,4.1,0.9,8.6,5,10l2.1,0.7
		c25.9,8.7,53.1,13.1,80.5,13.1c4.4,0,8-3.6,8-8S228.4,448,224,448z"/>
	<path class="st0" d="M296,447.9c-0.1,0-0.2,0-0.3,0c-2.6,0.1-5.2,0.1-7.7,0.1c-4.4,0-8,3.6-8,8s3.6,8,8,8c2.8,0,5.5,0,8.3-0.1
		c4.4-0.2,7.8-3.9,7.6-8.3C303.7,451.3,300.3,447.9,296,447.9z"/>
	<path class="st0" d="M320.1,454c0.6,3.9,4,6.7,7.9,6.7c0.4,0,0.9,0,1.3-0.1c13.3-2.2,26.4-5.4,39.2-9.7c4.2-1.5,6.3-6.1,4.8-10.3
		c-1.5-4-5.8-6.2-9.9-4.9c-12,4-24.3,7-36.7,9.1C322.3,445.6,319.4,449.7,320.1,454C320.1,454,320.1,454,320.1,454z"/>
	<circle class="st0" cx="288" cy="248" r="8"/>
	<circle class="st0" cx="288" cy="296" r="8"/>
	<circle class="st0" cx="288" cy="344" r="8"/>
	<circle class="st0" cx="288" cy="392" r="8"/>
</g>
</svg>
