<?xml version="1.0" encoding="utf-8"?>
<!-- Generator: Adobe Illustrator 23.0.2, SVG Export Plug-In . SVG Version: 6.00 Build 0)  -->
<svg version="1.1" id="Capa_1" xmlns="http://www.w3.org/2000/svg" xmlns:xlink="http://www.w3.org/1999/xlink" x="0px" y="0px"
	 viewBox="0 0 507.9 507.9" style="enable-background:new 0 0 507.9 507.9;" xml:space="preserve">
<style type="text/css">
	.st0{fill:#FFFEF5;}
</style>
<g>
	<g>
		<g>
			<path class="st0" d="M335.9,66.6V83c49.7,0,90.1,40.4,90.1,90.1h16.4C442.5,114.4,394.7,66.6,335.9,66.6z"/>
		</g>
	</g>
	<g>
		<g>
			<path class="st0" d="M477.8,181.8c0.5-4.6,0.7-8.7,0.7-12.7c0-74.5-61-135.2-136-135.2c-40.2,0-77.6,17.3-103.5,47.7
				c-14.1-5.7-28.9-8.7-44-8.7c-58,0-106.2,41.5-114.9,97.7H67.2c-37,0-67.2,30-67.2,66.8s30.1,66.8,67.2,66.8h29.2
				c20.1,25.7,51.2,41,83.8,41c32.7,0,63.7-15.2,83.8-41h176.7c37,0,67.2-30,67.2-66.8C508,215,496.6,194.1,477.8,181.8z
				 M440.8,287.9h-185c0,0-27,41-75.6,41c-52,0-75.6-41-75.6-41H67.2c-28,0-50.8-22.6-50.8-50.4s22.8-50.4,50.8-50.4h27.6l0.7-7.5
				c4.7-51.4,47.4-90.2,99.5-90.2c23.8,0,48.8,12.5,48.8,12.5s33.1-51.6,98.7-51.6c66,0,119.6,53.3,119.6,118.8
				c0,11.2-2,21.5-2,21.5s31.4,10.7,31.4,46.9C491.6,265.3,468.8,287.9,440.8,287.9z"/>
		</g>
	</g>
	<g>
		<g>
			
				<rect x="67" y="443.6" transform="matrix(0.7071 -0.7071 0.7071 0.7071 -293.0658 196.0829)" class="st0" width="46.3" height="16.4"/>
		</g>
	</g>
	<g>
		<g>
			
				<rect x="173.5" y="443.5" transform="matrix(0.7071 -0.7071 0.7071 0.7071 -261.8381 271.341)" class="st0" width="46.3" height="16.4"/>
		</g>
	</g>
	<g>
		<g>
			
				<rect x="280" y="443.6" transform="matrix(0.7071 -0.7071 0.7071 0.7071 -230.6476 346.6715)" class="st0" width="46.3" height="16.4"/>
		</g>
	</g>
	<g>
		<g>
			
				<rect x="386.5" y="443.6" transform="matrix(0.7071 -0.7071 0.7071 0.7071 -199.4476 422.0032)" class="st0" width="46.3" height="16.4"/>
		</g>
	</g>
	<g>
		<g>
			
				<rect x="148.9" y="378" transform="matrix(0.7071 -0.7071 0.7071 0.7071 -222.716 234.7779)" class="st0" width="46.3" height="16.4"/>
		</g>
	</g>
	<g>
		<g>
			
				<rect x="255.4" y="378" transform="matrix(0.7071 -0.7071 0.7071 0.7071 -191.5321 310.093)" class="st0" width="46.3" height="16.4"/>
		</g>
	</g>
	<g>
		<g>
			
				<rect x="361.9" y="378.1" transform="matrix(0.7071 -0.7071 0.7071 0.7071 -160.3479 385.408)" class="st0" width="46.3" height="16.4"/>
		</g>
	</g>
</g>
</svg>
