<?xml version="1.0"?>
<svg xmlns="http://www.w3.org/2000/svg" viewBox="0 0 512 512" width="512" height="512"><g id="outline"><path d="M43.76,198.784l64,40a8,8,0,0,0,11.1-2.668L128,220.882V488a8,8,0,0,0,8,8H376a8,8,0,0,0,8-8V220.882l9.14,15.234a8,8,0,0,0,11.1,2.668l64-40a8,8,0,0,0,3.188-9.755l-40.36-100.9a56.251,56.251,0,0,0-31.2-31.2l-20.761-8.3s-73.432-32.449-73.456-32.454c-.255-.053-99.866.136-100.1.212-.044.014-72.662,32.242-72.662,32.242l-20.761,8.305a56.254,56.254,0,0,0-31.2,31.2l-40.36,100.9A8,8,0,0,0,43.76,198.784ZM368,480H144V464H368ZM312,36.31l15.914,7.073a71.993,71.993,0,0,1-143.828,0L200,36.31V40a56,56,0,0,0,112,0ZM296,32v8a40,40,0,0,1-80,0V32ZM95.788,94.071a40.177,40.177,0,0,1,22.283-22.283l20.9-8.36c.093-.037.186-.076.278-.117L168.6,50.265a88,88,0,0,0,174.8,0l29.353,13.046c.092.041.185.08.278.117l20.9,8.36a40.177,40.177,0,0,1,22.283,22.283l37.876,94.69L402.668,220.9l-10.045-16.742,35.493-21.3a8,8,0,1,0-8.232-13.72l-35.493,21.3-1.531-2.552A8,8,0,0,0,368,192V448H144V192a8,8,0,0,0-14.86-4.116l-1.531,2.552-35.493-21.3a8,8,0,1,0-8.232,13.72l35.493,21.3L109.332,220.9l-51.42-32.137Z"/></g></svg>
