<?xml version="1.0" encoding="utf-8"?>
<!-- Generator: Adobe Illustrator 23.0.2, SVG Export Plug-In . SVG Version: 6.00 Build 0)  -->
<svg version="1.1" id="Layer_1" xmlns="http://www.w3.org/2000/svg" xmlns:xlink="http://www.w3.org/1999/xlink" x="0px" y="0px"
	 viewBox="0 0 512 512" style="enable-background:new 0 0 512 512;" xml:space="preserve">
<style type="text/css">
	.st0{fill:#FFFEF5;}
</style>
<g id="outline">
	<path class="st0" d="M43.8,198.8l64,40c3.7,2.3,8.7,1.2,11-2.5c0,0,0.1-0.1,0.1-0.1l9.1-15.2V488c0,4.4,3.6,8,8,8h240
		c4.4,0,8-3.6,8-8V220.9l9.1,15.2c2.3,3.8,7.2,5,11,2.7c0,0,0.1-0.1,0.1-0.1l64-40c3.3-2.1,4.6-6.2,3.2-9.8L431.1,88.1
		c-5.7-14.2-17-25.5-31.2-31.2l-20.8-8.3c0,0-73.4-32.4-73.5-32.5c-0.3-0.1-99.9,0.1-100.1,0.2c0,0-72.7,32.2-72.7,32.2l-20.8,8.3
		c-14.2,5.7-25.5,17-31.2,31.2L40.6,189C39.1,192.6,40.5,196.7,43.8,198.8z M368,480H144v-16h224V480z M312,36.3l15.9,7.1
		c-1.9,39.7-35.6,70.4-75.3,68.5c-37.1-1.7-66.8-31.4-68.5-68.5l15.9-7.1V40c0,30.9,25.1,56,56,56s56-25.1,56-56V36.3z M296,32v8
		c0,22.1-17.9,40-40,40s-40-17.9-40-40v-8H296z M95.8,94.1c4.1-10.2,12.1-18.2,22.3-22.3l20.9-8.4c0.1,0,0.2-0.1,0.3-0.1l29.4-13
		c5.7,48.3,49.4,82.8,97.7,77.1c40.5-4.8,72.4-36.7,77.1-77.1l29.4,13c0.1,0,0.2,0.1,0.3,0.1l20.9,8.4c10.2,4.1,18.2,12.1,22.3,22.3
		l37.9,94.7l-51.4,32.1l-10-16.7l35.5-21.3c3.8-2.3,5-7.2,2.7-11c-2.3-3.8-7.2-5-11-2.7l-35.5,21.3l-1.5-2.6c-2.3-3.8-7.2-5-11-2.7
		c-2.4,1.4-3.9,4-3.9,6.9v256H144V192c0-4.4-3.6-8-8-8c-2.8,0-5.4,1.5-6.9,3.9l-1.5,2.6l-35.5-21.3c-3.8-2.3-8.7-1-11,2.7
		c-2.3,3.8-1,8.7,2.7,11l0,0l35.5,21.3l-10,16.7l-51.4-32.1L95.8,94.1z"/>
</g>
</svg>
