<?xml version="1.0" encoding="utf-8"?>
<!-- Generator: Adobe Illustrator 23.0.2, SVG Export Plug-In . SVG Version: 6.00 Build 0)  -->
<svg version="1.1" id="Layer_1" xmlns="http://www.w3.org/2000/svg" xmlns:xlink="http://www.w3.org/1999/xlink" x="0px" y="0px"
	 viewBox="0 0 512 512" style="enable-background:new 0 0 512 512;" xml:space="preserve">
<style type="text/css">
	.st0{fill:#FFFEF5;}
</style>
<path id="Shape" class="st0" d="M385.8,12.3C383.3,3.4,374-1.8,365.1,0.7L265,29.9c-5.2-18-5.5-23.5-13.2-27.8
	c-3.8-2.1-8.4-2.6-12.6-1.4L109.3,38.6c-8.9,2.5-14.1,11.7-11.7,20.6l58.8,220.2l-88.9,92.9c-30.9,30.1-31.5,79.6-1.3,110.5
	c30.1,30.9,79.6,31.5,110.5,1.3l12.3-10.6c13.3,16.9,33,27.7,54.5,29.7c21.5,2,42.8-4.9,59-19.1c56.8-48.9,77.6-68,119.9-97.4
	c35.9-24.8,52-69.7,40-111.7C393.7,34.2,534.7,536.7,385.8,12.3z M131.7,120.9l131.4-36.9l5.1,17.6l-131.7,37.1L131.7,120.9z
	 M288.8,112l100.1-28l5.1,17.6l-100.1,28.5L288.8,112z M369.6,16.8l14.6,50.4L284.1,95.7c-0.6-1.9-15.1-52.1-14.4-49.9L369.6,16.8z
	 M243.7,16.8c7.4,25.2-9.1-31.7,14.6,50.4l-131,37.5L114,54.3C249.3,15.1,242.9,16.8,243.7,16.8z M173,274.9l-32.1-120l131.9-37.4
	l35.8,123.2c-60.3,31.8-85.6,90.9-46.2,149.9c-28.5,21.5-50.4,41.1-87.6,72.7c-19.6-37-48.5-68.3-83.9-90.7l78.1-81.5
	C173,286.7,174.5,280.6,173,274.9z M276.1,380.6c-32.5-49.1-12.4-95.2,37.4-123.5l6.5,22.5c9.8,35.1-3.7,72.5-33.6,93.3
	C282.9,375.4,279.5,377.7,276.1,380.6z M119.8,486.8c-23.4-1.6-43.8-16.4-52.5-38.1c-8.7-21.7-4.3-46.5,11.5-63.8
	c35.3,21.5,64,52.5,82.8,89.3C149.7,483.4,134.8,487.9,119.8,486.8z M201.4,462.7c27.4-23.2,20.9-18.2,48.7-40.9
	c14.9,15.7,27.5,33.4,37.4,52.6c-13,9.8-29.4,14.1-45.5,11.9s-30.8-10.8-40.6-23.8L201.4,462.7z M300.6,463.4
	c-10.1-19-22.7-36.5-37.4-52.1c10.7-8.4,21.7-16.8,33-24.5c35.7-24.9,51.8-69.7,40-111.6l-37.4-129.3l100-28.3l35.8,123.3
	c-60.1,31.6-85.8,90.6-46.2,149.9c-33.1,24.8-46,37.4-87.7,72.5V463.4z M412.4,372.8c-3.5,2.4-7,5-10.5,7.6
	c-32.1-48.7-12.7-94.9,37.4-123.3l6.5,22.4C455.7,314.6,442.3,352,412.4,372.8L412.4,372.8z"/>
</svg>
