<?xml version="1.0" encoding="utf-8"?>
<!-- Generator: Adobe Illustrator 23.0.2, SVG Export Plug-In . SVG Version: 6.00 Build 0)  -->
<svg version="1.1" id="Capa_1" xmlns="http://www.w3.org/2000/svg" xmlns:xlink="http://www.w3.org/1999/xlink" x="0px" y="0px"
	 viewBox="0 0 508 508" style="enable-background:new 0 0 508 508;" xml:space="preserve">
<style type="text/css">
	.st0{fill:#FFFEF5;}
</style>
<g>
	<g>
		<g>
			<path class="st0" d="M112.7,136.4H129c0-40.6,33.1-73.7,73.8-73.7V46.3C153.1,46.3,112.7,86.8,112.7,136.4z"/>
		</g>
	</g>
	<g>
		<g>
			<path class="st0" d="M428.1,128.2h-2.4c-4.2-51.5-47.5-92.2-100-92.2c-11.1,0-22.1,1.8-32.6,5.5c-24.5-23.4-56.4-36.2-90.3-36.2
				C133.1,5.4,76,60.1,71.9,128.7C31.6,132.8,0,166.9,0,208.2c0,44,35.8,79.9,79.9,79.9h18.4v-16.4H79.9c-35,0-63.5-28.5-63.5-63.5
				s28.5-63.5,63.5-63.5h8.2v-8.2c0-63.3,51.5-114.7,114.7-114.7c52.7,0,86.2,39,86.2,39s16.9-8.3,36.7-8.3c46.3,0,84,37.7,84,84
				v8.2h18.4c35,0,63.5,28.5,63.5,63.5s-28.5,63.5-63.5,63.5H319.5v16.4h108.6c44,0,79.9-35.8,79.9-79.9S472.2,128.2,428.1,128.2z"
				/>
		</g>
	</g>
	<g>
		<g>
			<path class="st0" d="M304.1,266.5l-71-23.4l6-128.3L109.4,284l71.4,23.6l-29.6,141.9L304.1,266.5z M136.4,275.8l83.9-109.4
				l-4.1,88.5l59.9,19.8l-95.5,114.2l19.2-92.1L136.4,275.8z"/>
		</g>
	</g>
	<g>
		<g>
			<path class="st0" d="M361.5,392.5l-38.9-12.8l3.5-75.2l-77.4,100.9l38.3,12.7l-17.6,84.5L361.5,392.5z M275.8,397.1l31.5-41.1
				l-1.7,35.4l27.8,9.1l-34.6,41.4l7.3-34.8L275.8,397.1z"/>
		</g>
	</g>
</g>
</svg>
