<?xml version="1.0" encoding="utf-8"?>
<!-- Generator: Adobe Illustrator 23.0.2, SVG Export Plug-In . SVG Version: 6.00 Build 0)  -->
<svg version="1.1" id="Capa_1" xmlns="http://www.w3.org/2000/svg" xmlns:xlink="http://www.w3.org/1999/xlink" x="0px" y="0px"
	 viewBox="0 0 508 508" style="enable-background:new 0 0 508 508;" xml:space="preserve">
<style type="text/css">
	.st0{fill:#FFF792;}
</style>
<g>
	<g>
		<path class="st0" d="M254,139.3c-63.3,0-114.7,51.5-114.7,114.7c0,63.3,51.5,114.7,114.7,114.7c63.3,0,114.7-51.5,114.7-114.7
			C368.7,190.7,317.3,139.3,254,139.3z M254,352.3c-54.2,0-98.3-44.1-98.3-98.3s44.1-98.3,98.3-98.3s98.3,44.1,98.3,98.3
			S308.2,352.3,254,352.3z"/>
	</g>
</g>
<g>
	<g>
		<rect x="245.8" class="st0" width="16.4" height="81.9"/>
	</g>
</g>
<g>
	<g>
		<rect x="245.8" y="425.9" class="st0" width="16.4" height="82.1"/>
	</g>
</g>
<g>
	<g>
		
			<rect x="170.6" y="47.8" transform="matrix(0.9239 -0.3827 0.3827 0.9239 -14.0836 73.9303)" class="st0" width="16.4" height="49.2"/>
	</g>
</g>
<g>
	<g>
		
			<rect x="321.1" y="410.9" transform="matrix(0.9239 -0.3827 0.3827 0.9239 -141.6322 159.1629)" class="st0" width="16.4" height="49.4"/>
	</g>
</g>
<g>
	<g>
		<polygon class="st0" points="455.3,161.8 409.8,180.6 416.1,195.7 461.5,176.9 		"/>
	</g>
</g>
<g>
	<g>
		
			<rect x="47.7" y="321" transform="matrix(0.9239 -0.3827 0.3827 0.9239 -120.4792 52.7697)" class="st0" width="49.4" height="16.4"/>
	</g>
</g>
<g>
	<g>
		<polygon class="st0" points="52.8,161.8 46.5,176.9 91.9,195.7 98.2,180.6 		"/>
	</g>
</g>
<g>
	<g>
		
			<rect x="427.4" y="304.5" transform="matrix(0.3827 -0.9239 0.9239 0.3827 -35.2708 605.6304)" class="st0" width="16.4" height="49.4"/>
	</g>
</g>
<g>
	<g>
		
			<rect x="304.7" y="64.1" transform="matrix(0.3828 -0.9238 0.9238 0.3828 136.4146 348.844)" class="st0" width="49.2" height="16.4"/>
	</g>
</g>
<g>
	<g>
		
			<rect x="154.1" y="427.4" transform="matrix(0.3828 -0.9238 0.9238 0.3828 -292.0569 433.9904)" class="st0" width="49.4" height="16.4"/>
	</g>
</g>
<g>
	<g>
		
			<rect x="363.7" y="95.1" transform="matrix(0.7071 -0.7071 0.7071 0.7071 45.4507 316.3721)" class="st0" width="81.9" height="16.4"/>
	</g>
</g>
<g>
	<g>
		
			<rect x="62.4" y="396.4" transform="matrix(0.7071 -0.7071 0.7071 0.7071 -255.797 191.6469)" class="st0" width="82.1" height="16.4"/>
	</g>
</g>
<g>
	<g>
		<rect x="426.1" y="245.8" class="st0" width="81.9" height="16.4"/>
	</g>
</g>
<g>
	<g>
		<rect y="245.8" class="st0" width="82.1" height="16.4"/>
	</g>
</g>
<g>
	<g>
		
			<rect x="396.4" y="363.7" transform="matrix(0.7071 -0.7071 0.7071 0.7071 -167.6337 404.617)" class="st0" width="16.4" height="81.9"/>
	</g>
</g>
<g>
	<g>
		
			<rect x="95.3" y="62.4" transform="matrix(0.7071 -0.7071 0.7071 0.7071 -42.8252 103.4506)" class="st0" width="16.4" height="82.1"/>
	</g>
</g>
<g>
	<g>
		<path class="st0" d="M254,106.5c-81.3,0-147.5,66.2-147.5,147.5S172.7,401.5,254,401.5S401.5,335.3,401.5,254
			S335.3,106.5,254,106.5z M254,385.1c-72.3,0-131.1-58.8-131.1-131.1S181.7,122.9,254,122.9S385.1,181.7,385.1,254
			S326.3,385.1,254,385.1z"/>
	</g>
</g>
</svg>
