<?xml version="1.0" encoding="utf-8"?>
<!-- Generator: Adobe Illustrator 23.0.2, SVG Export Plug-In . SVG Version: 6.00 Build 0)  -->
<svg version="1.1" id="Layer_1" xmlns="http://www.w3.org/2000/svg" xmlns:xlink="http://www.w3.org/1999/xlink" x="0px" y="0px"
	 viewBox="0 0 511 511" style="enable-background:new 0 0 511 511;" xml:space="preserve">
<style type="text/css">
	.st0{fill:#FFFEF5;}
</style>
<path class="st0" d="M510.6,401.9c-1.6-8.5-3.9-21.3-5.7-31.1c2.6-5.3,3.8-11.4,3.1-17.6c-8.7-75.2-27-141.9-40.7-184.6
	c-1.3-4-5.6-6.2-9.6-4.9c-4,1.3-6.2,5.6-4.9,9.6c13.5,42.1,31.5,107.8,40.1,181.7c0.9,7.5-3.5,14.5-10.7,17.1
	c-8.5,3-18.2,5-29.7,6.1c-7.8,0.7-14.9-4.2-17-11.7L388.3,196c0.3-34.9,14.8-59.3,45.5-75.9c2.2,5.5,5.4,13.8,9.2,24.5
	c1.1,3.1,4.1,5.1,7.2,5.1c0.9,0,1.7-0.1,2.6-0.4c4-1.4,6-5.8,4.6-9.8c-7.4-20.7-12.4-32.4-12.6-32.9c-0.4-0.9-0.9-1.7-1.6-2.4
	c-35.8-35.8-90.3-55.5-92.6-56.3c-0.1,0-0.2-0.1-0.3-0.1l-4.9-1.5c-7.6-6.5-19.7-8.2-24.9-9c-16-2.3-37.2-2.3-61.7-2.3h-6.5
	c-24.5,0-45.7,0-61.7,2.3c-5.1,0.7-16.9,2.4-24.5,8.7c-1.9,0.6-3.7,1.2-5.6,1.9c-3.2,1.1-57.1,20.8-92.6,56.3
	c-0.7,0.7-1.2,1.5-1.6,2.4C65.8,107.6,18.8,217.6,3,353.2c-0.7,6.2,0.4,12.3,3.1,17.6c-1.8,9.8-4.2,22.6-5.7,31.1
	c-1.7,9.4,2.8,18.8,11.3,23.2c8,4.2,21.2,9.2,38.5,9.2H51c10.6-0.1,19.5-7.7,21.3-18.2l4.7-27.7c6.4-4,11.2-10.4,13.4-18.1
	l32.4-117.2v139.2c0,11.2,4.4,21.5,11.9,29v2.4c0,29.9,52,52.5,120.9,52.5c68.9,0,120.9-22.6,120.9-52.5v-2.4
	c7.5-7.6,11.9-17.9,11.9-29.1V253.2l32.4,117.2c2.1,7.7,7,14,13.4,18.1l4.7,27.7c1.8,10.4,10.7,18.1,21.3,18.2c0.3,0,0.5,0,0.8,0
	c17.3,0,30.4-5,38.5-9.2C507.8,420.7,512.4,411.4,510.6,401.9z M373,197v195.4c0,9.8-5.6,19-14.4,23.3
	c-17.5,8.7-49.7,19.1-103.2,19.1s-85.6-10.4-103.2-19.1c-8.7-4.3-14.4-13.5-14.4-23.3V197c0-40.4-16.9-69.7-51.6-89.3
	c16-13.9,34.7-24.9,50-32.6c5,8.7,13.9,20.2,27,34.8c1.5,1.7,3.6,2.5,5.7,2.5c1.8,0,3.6-0.6,5.1-1.9c3.1-2.8,3.4-7.6,0.6-10.8
	c-13.7-15.3-20.9-25.1-24.5-31.2c3.7-1.6,6.9-3,9.4-4c2.2,8.1,11.7,22.9,46,57.9c22.1,22.5,44.5,43,44.7,43.2c1.5,1.3,3.3,2,5.1,2
	c1.8,0,3.7-0.7,5.2-2c0.2-0.2,22.6-20.7,44.7-43.2c34.4-34.9,43.9-49.7,46-57.9c2.5,1,5.7,2.4,9.4,4c-15.7,26.4-76.1,85-105.3,112
	c-10.7-10-36.4-34.1-60.2-58.7c-2.9-3-7.8-3.1-10.8-0.2c-3,2.9-3.1,7.8-0.2,10.8c31.2,32.3,65.6,63.8,66,64.1c1.5,1.3,3.3,2,5.2,2
	c1.8,0,3.7-0.7,5.1-2c10.1-9.2,93.1-85.6,113.9-121.5c15.3,7.7,34.1,18.7,50.1,32.6C389.9,127.3,373,156.6,373,197z M192.7,52.3
	c14.9-2.2,36.6-2.1,59.5-2.1h6.5c23,0,44.6,0,59.5,2.1c5.5,0.8,18.3,3.2,18.4,8c-1,7.9-32.1,43.8-81.2,89.2
	c-49.1-45.3-80.2-81.3-81.2-89.2C174.4,55.5,187.2,53.1,192.7,52.3z M57.2,413.7c-0.5,3.1-3.2,5.4-6.4,5.5
	c-14.5,0.1-25.4-4-32.1-7.5c-2.5-1.3-3.9-4.1-3.4-7c1-5.6,2.4-13.1,3.7-20.4c1.5,0.8,3,1.5,4.6,2.1c9.6,3.4,20.6,5.7,33.4,6.9
	c1.2,0.1,2.3,0.1,3.5,0.1L57.2,413.7z M75.6,366.4c-2.1,7.5-9.2,12.4-17,11.7C47,377,37.3,375,28.9,372c-7.1-2.5-11.5-9.5-10.7-17
	c13.2-113.2,48.4-208.2,59-234.9c30.7,16.7,45.2,41,45.5,75.9L75.6,366.4z M332.8,448.5c-20.5,8.1-48,12.6-77.3,12.6
	c-29.3,0-56.8-4.5-77.3-12.6c-11.3-4.5-19.8-9.9-24.4-15.4c20.1,8.4,52.6,16.9,101.7,16.9c49.1,0,81.5-8.5,101.6-16.9
	C352.5,438.7,344.1,444,332.8,448.5z M492.2,411.7c-6.6,3.5-17.6,7.6-32.1,7.5c-3.2,0-5.8-2.3-6.4-5.5l-3.4-20.3
	c1.2,0,2.3,0,3.5-0.1c12.8-1.2,23.7-3.5,33.4-6.9c1.6-0.6,3.2-1.3,4.6-2.1c1.3,7.3,2.7,14.7,3.7,20.4
	C496.1,407.5,494.8,410.3,492.2,411.7z"/>
</svg>
