<svg height="512pt" viewBox="0 -14 512.00032 512" width="512pt" xmlns="http://www.w3.org/2000/svg"><path d="m497.566406 252.847656c-9.195312-56.476562-35.03125-106.914062-55.085937-139.285156-21.691407-35.015625-40.992188-56.492188-41.804688-57.390625-.015625-.019531-.039062-.03125-.054687-.050781-.910156-.988282-2.089844-1.75-3.476563-2.140625l-27.9375-7.863281c-3.988281-1.121094-8.132812 1.199218-9.253906 5.1875-1.121094 3.988281 1.203125 8.132812 5.1875 9.253906l21.484375 6.046875c-3.304688 20.777343-5.242188 39.363281-6.039062 57.011719l-14.140626 5.582031c-2.675781 1.0625-5.628906 1.0625-8.308593 0l-21.617188-8.53125c-6.234375-2.460938-13.097656-2.460938-19.332031 0l-21.605469 8.53125c-2.683593 1.0625-5.636719 1.0625-8.316406 0l-21.609375-8.53125c-6.234375-2.464844-13.101562-2.460938-19.332031 0l-21.609375 8.53125c-2.679688 1.058593-5.632813 1.0625-8.3125 0l-21.605469-8.53125c-6.234375-2.460938-13.101563-2.464844-19.335937 0l-21.601563 8.53125c-2.683594 1.058593-5.636719 1.0625-8.316406 0l-14.125-5.578125c-.796875-17.652344-2.734375-36.238282-6.039063-57.015625l21.453125-6.039063c3.988281-1.121094 6.3125-5.265625 5.1875-9.25-1.121093-3.988281-5.261719-6.3125-9.25-5.1875l-27.910156 7.851563c-1.386719.390625-2.5625 1.152343-3.472656 2.140625-.019531.015625-.042969.03125-.058594.050781-.8125.898437-20.113281 22.375-41.808594 57.390625-36.332031 58.644531-50.007812 108.113281-55.082031 139.285156-8.75 53.707032-13.605469 112.554688-14.4375 174.902344-.0429688 3.40625 1.25 6.621094 3.644531 9.046875.230469.230469.46875.441406.714844.652344v28.789062c0 9.609375 7.816406 17.429688 17.425781 17.429688h43.117188c9.609375 0 17.429687-7.820313 17.429687-17.429688v-27.96875c3.070313-2.148437 5.160157-5.617187 5.394531-9.617187 4.089844-70.230469 11.503907-124.777344 21.414063-159.035156l4.367187 151.515624c0 .0625.003907.125.007813.1875.449219 8.320313 5.859375 15.226563 13.257813 17.96875v24.480469c0 10.972657 8.925781 19.898438 19.898437 19.898438h218.65625c10.972656 0 19.894531-8.925781 19.894531-19.898438v-24.480469c7.402344-2.738281 12.816406-9.648437 13.261719-17.964843.003906-.0625.007813-.125.007813-.1875l4.585937-150.75c9.800781 34.300781 17.136719 88.550781 21.195313 158.261719.234374 4.046874 2.371093 7.554687 5.5 9.695312v27.894531c0 9.609375 7.816406 17.429688 17.425781 17.429688h43.117187c9.609375 0 17.429688-7.820313 17.429688-17.429688v-28.878906c.203125-.183594.414062-.363281.609375-.5625 2.394531-2.425781 3.691406-5.640625 3.644531-9.046875-.832031-62.351562-5.6875-121.195312-14.433594-174.902344zm-430.234375 213.390625c0 1.335938-1.089843 2.425781-2.429687 2.425781h-43.117188c-1.339844 0-2.425781-1.089843-2.425781-2.425781v-25.675781h47.972656zm41.148438-234.152343c-21.910157 34.96875-31.449219 123.761718-35.597657 193.476562h-57.847656c.910156-60.722656 5.6875-118.011719 14.203125-170.304688 13.046875-80.117187 61.339844-149.015624 82.8125-176.40625 8.136719 57.261719 5.125 98.039063-3.570312 153.234376zm23.355469-92.171876 8.195312 3.238282c6.234375 2.460937 13.101562 2.460937 19.335938 0l21.601562-8.535156c2.683594-1.058594 5.632812-1.058594 8.3125 0l21.609375 8.535156c3.117187 1.230468 6.390625 1.847656 9.667969 1.847656 3.273437 0 6.546875-.617188 9.664062-1.847656l21.609375-8.535156c2.679688-1.058594 5.632813-1.058594 8.3125 0l21.609375 8.535156c6.230469 2.460937 13.097656 2.460937 19.335938 0l21.605468-8.535156c2.683594-1.058594 5.636719-1.058594 8.316407 0l21.613281 8.535156c6.234375 2.460937 13.101562 2.460937 19.332031 0l8.207031-3.242188c-.070312 12 .382813 23.734375 1.28125 35.632813l-15 5.925781c-2.679687 1.058594-5.632812 1.058594-8.3125 0l-21.613281-8.535156c-6.230469-2.464844-13.097656-2.464844-19.332031 0l-21.609375 8.53125c-2.679687 1.058594-5.632813 1.058594-8.3125 0l-21.613281-8.53125c-6.234375-2.464844-13.097656-2.460938-19.332032 0l-21.609374 8.53125c-2.679688 1.058594-5.628907 1.058594-8.3125 0l-21.605469-8.53125c-6.238281-2.464844-13.101563-2.460938-19.335938 0l-21.601562 8.53125c-2.679688 1.0625-5.632813 1.0625-8.3125 0l-14.988281-5.921875c.898437-11.894531 1.351562-23.628907 1.28125-35.628907zm251.667968 280.671876c-.1875 2.796874-2.515625 4.976562-5.324218 4.976562h-189.484376c-4.140624 0-7.5 3.355469-7.5 7.5s3.359376 7.5 7.5 7.5h181.527344v23.207031c0 2.699219-2.195312 4.894531-4.894531 4.894531h-218.65625c-2.699219 0-4.894531-2.195312-4.894531-4.894531v-23.207031h16.933594c4.144531 0 7.5-3.355469 7.5-7.5s-3.355469-7.5-7.5-7.5h-24.890626c-2.808593 0-5.132812-2.179688-5.320312-4.976562l-2.960938-102.769532 14.492188 5.726563c6.234375 2.464843 13.101562 2.464843 19.335938 0l21.601562-8.53125c2.683594-1.0625 5.636719-1.0625 8.316406 0l21.605469 8.53125c6.234375 2.460937 13.101563 2.460937 19.335937 0l21.609376-8.53125c2.679687-1.058594 5.632812-1.058594 8.3125 0l21.609374 8.53125c6.230469 2.460937 13.097657 2.460937 19.332032 0l21.609375-8.535157c2.679687-1.058593 5.632812-1.058593 8.3125 0l21.617187 8.539063c3.113282 1.226563 6.390625 1.84375 9.664063 1.84375 3.273437 0 6.550781-.613281 9.664062-1.84375l14.511719-5.730469zm3.429688-119.082032-20.488282 8.089844c-2.679687 1.058594-5.628906 1.058594-8.3125 0l-21.613281-8.535156c-6.234375-2.460938-13.101562-2.460938-19.332031 0l-21.609375 8.535156c-2.679687 1.058594-5.632813 1.058594-8.3125 0l-21.609375-8.535156c-6.234375-2.460938-13.101562-2.464844-19.335938 0l-21.605468 8.535156c-2.679688 1.058594-5.632813 1.058594-8.3125 0l-21.609375-8.535156c-6.230469-2.460938-13.097657-2.460938-19.332031 0l-21.605469 8.535156c-2.679688 1.058594-5.632813 1.058594-8.3125 0l-20.476563-8.089844-1.050781-36.554687 16.015625 6.328125c6.234375 2.460937 13.101562 2.460937 19.335938 0l21.601562-8.53125c2.683594-1.058594 5.636719-1.0625 8.316406 0l21.605469 8.53125c6.234375 2.464844 13.101563 2.464844 19.332031 0l21.609375-8.53125c2.683594-1.058594 5.632813-1.058594 8.3125 0l21.609375 8.53125c6.234375 2.464844 13.101563 2.464844 19.335938 0l21.609375-8.53125c2.679687-1.0625 5.628906-1.0625 8.3125-.003906l21.613281 8.535156c3.117188 1.230468 6.390625 1.847656 9.664062 1.847656 3.277344 0 6.550782-.613281 9.667969-1.847656l16.03125-6.328125zm1.523437-52.867187-22.011719 8.691406c-2.679687 1.058594-5.628906 1.058594-8.3125 0l-21.613281-8.535156c-6.234375-2.460938-13.101562-2.460938-19.332031 0l-21.609375 8.535156c-2.679687 1.058594-5.632813 1.058594-8.3125 0l-21.613281-8.535156c-6.234375-2.460938-13.097656-2.460938-19.332032 0l-21.609374 8.535156c-2.679688 1.058594-5.628907 1.058594-8.3125 0l-21.605469-8.535156c-6.234375-2.460938-13.101563-2.460938-19.335938 0l-21.601562 8.53125c-2.679688 1.0625-5.632813 1.0625-8.3125 0l-22-8.6875-.386719-13.34375c2.476562-15.632813 4.507812-30.140625 5.984375-44.179688l10.886719 4.304688c6.234375 2.460937 13.105468 2.464843 19.339844 0l21.601562-8.53125c2.679688-1.0625 5.632812-1.0625 8.3125-.003907l21.605469 8.535157c6.238281 2.464843 13.101562 2.464843 19.335937 0l21.605469-8.535157c2.683594-1.058593 5.636719-1.058593 8.316406 0l21.609375 8.535157c6.230469 2.464843 13.101563 2.464843 19.332032 0l21.609374-8.535157c2.679688-1.058593 5.632813-1.058593 8.3125 0l21.617188 8.535157c3.113281 1.230469 6.390625 1.847656 9.664062 1.847656 3.273438 0 6.550782-.617187 9.664063-1.847656l10.90625-4.304688c1.476563 14.039063 3.507813 28.546875 5.980469 44.179688zm104.289063 217.601562c0 1.335938-1.089844 2.425781-2.429688 2.425781h-43.117187c-1.335938 0-2.425781-1.089843-2.425781-2.425781v-25.675781h47.972656zm-53.628906-40.675781c-4.148438-69.714844-13.6875-158.507812-35.597657-193.476562-8.695312-55.195313-11.707031-95.976563-3.574219-153.234376 21.476563 27.394532 69.769532 96.292969 82.816407 176.40625 8.511719 52.292969 13.292969 109.582032 14.203125 170.304688zm0 0"/><path d="m181.210938 60.042969 30.210937 5.867187c14.789063 2.875 29.683594 4.3125 44.578125 4.3125s29.789062-1.4375 44.582031-4.3125l30.207031-5.867187h.003907c9.171875-1.78125 15.832031-9.859375 15.832031-19.207031v-21.273438c0-10.785156-8.777344-19.5625-19.5625-19.5625h-142.121094c-10.789062 0-19.566406 8.777344-19.566406 19.5625v21.273438c0 9.347656 6.660156 17.425781 15.835938 19.207031zm-.835938-40.480469c0-2.515625 2.046875-4.5625 4.566406-4.5625h142.121094c2.515625 0 4.5625 2.046875 4.5625 4.5625v21.273438c0 2.183593-1.554688 4.066406-3.695312 4.480468l-30.207032 5.871094c-27.6875 5.375-55.757812 5.375-83.441406 0l-30.210938-5.871094c-2.140624-.414062-3.695312-2.300781-3.695312-4.480468zm0 0"/></svg>