<?xml version="1.0" encoding="utf-8"?>
<!-- Generator: Adobe Illustrator 23.0.2, SVG Export Plug-In . SVG Version: 6.00 Build 0)  -->
<svg version="1.1" id="Layer_1" xmlns="http://www.w3.org/2000/svg" xmlns:xlink="http://www.w3.org/1999/xlink" x="0px" y="0px"
	 viewBox="0 0 512 512" style="enable-background:new 0 0 512 512;" xml:space="preserve">
<style type="text/css">
	.st0{fill:#FFFEF5;}
</style>
<g>
	<path class="st0" d="M497.6,266.8c-9.2-56.5-35-106.9-55.1-139.3c-21.7-35-41-56.5-41.8-57.4c0,0,0,0-0.1-0.1
		c-0.9-1-2.1-1.8-3.5-2.1l-27.9-7.9c-4-1.1-8.1,1.2-9.3,5.2s1.2,8.1,5.2,9.3l21.5,6c-3.3,20.8-5.2,39.4-6,57l-14.1,5.6
		c-2.7,1.1-5.6,1.1-8.3,0l-21.6-8.5c-6.2-2.5-13.1-2.5-19.3,0l-21.6,8.5c-2.7,1.1-5.6,1.1-8.3,0l-21.6-8.5c-6.2-2.5-13.1-2.5-19.3,0
		l-21.6,8.5c-2.7,1.1-5.6,1.1-8.3,0l-21.6-8.5c-6.2-2.5-13.1-2.5-19.3,0l-21.6,8.5c-2.7,1.1-5.6,1.1-8.3,0l-14.1-5.6
		c-0.8-17.7-2.7-36.2-6-57l21.5-6c4-1.1,6.3-5.3,5.2-9.2c-1.1-4-5.3-6.3-9.2-5.2L114.9,68c-1.4,0.4-2.6,1.2-3.5,2.1c0,0,0,0-0.1,0.1
		c-0.8,0.9-20.1,22.4-41.8,57.4c-36.3,58.6-50,108.1-55.1,139.3C5.7,320.6,0.8,379.4,0,441.8c0,3.4,1.2,6.6,3.6,9
		c0.2,0.2,0.5,0.4,0.7,0.7v28.8c0,9.6,7.8,17.4,17.4,17.4h43.1c9.6,0,17.4-7.8,17.4-17.4v-28c3.1-2.1,5.2-5.6,5.4-9.6
		c4.1-70.2,11.5-124.8,21.4-159l4.4,151.5c0,0.1,0,0.1,0,0.2c0.4,8.3,5.9,15.2,13.3,18v24.5c0,11,8.9,19.9,19.9,19.9h218.7
		c11,0,19.9-8.9,19.9-19.9v-24.5c7.4-2.7,12.8-9.6,13.3-18c0-0.1,0-0.1,0-0.2l4.6-150.8c9.8,34.3,17.1,88.6,21.2,158.3
		c0.2,4,2.4,7.6,5.5,9.7v27.9c0,9.6,7.8,17.4,17.4,17.4h43.1c9.6,0,17.4-7.8,17.4-17.4v-28.9c0.2-0.2,0.4-0.4,0.6-0.6
		c2.4-2.4,3.7-5.6,3.6-9C511.2,379.4,506.3,320.6,497.6,266.8z M67.3,480.2c0,1.3-1.1,2.4-2.4,2.4H21.8c-1.3,0-2.4-1.1-2.4-2.4
		v-25.7h48V480.2z M108.5,246.1c-21.9,35-31.4,123.8-35.6,193.5H15c0.9-60.7,5.7-118,14.2-170.3c13-80.1,61.3-149,82.8-176.4
		C120.2,150.1,117.2,190.9,108.5,246.1z M131.8,153.9l8.2,3.2c6.2,2.5,13.1,2.5,19.3,0l21.6-8.5c2.7-1.1,5.6-1.1,8.3,0l21.6,8.5
		c3.1,1.2,6.4,1.8,9.7,1.8c3.3,0,6.5-0.6,9.7-1.8l21.6-8.5c2.7-1.1,5.6-1.1,8.3,0l21.6,8.5c6.2,2.5,13.1,2.5,19.3,0l21.6-8.5
		c2.7-1.1,5.6-1.1,8.3,0l21.6,8.5c6.2,2.5,13.1,2.5,19.3,0l8.2-3.2c-0.1,12,0.4,23.7,1.3,35.6l-15,5.9c-2.7,1.1-5.6,1.1-8.3,0
		l-21.6-8.5c-6.2-2.5-13.1-2.5-19.3,0l-21.6,8.5c-2.7,1.1-5.6,1.1-8.3,0l-21.6-8.5c-6.2-2.5-13.1-2.5-19.3,0l-21.6,8.5
		c-2.7,1.1-5.6,1.1-8.3,0l-21.6-8.5c-6.2-2.5-13.1-2.5-19.3,0l-21.6,8.5c-2.7,1.1-5.6,1.1-8.3,0l-15-5.9
		C131.5,177.6,131.9,165.9,131.8,153.9z M383.5,434.6c-0.2,2.8-2.5,5-5.3,5H188.7c-4.1,0-7.5,3.4-7.5,7.5s3.4,7.5,7.5,7.5h181.5
		v23.2c0,2.7-2.2,4.9-4.9,4.9H146.7c-2.7,0-4.9-2.2-4.9-4.9v-23.2h16.9c4.1,0,7.5-3.4,7.5-7.5s-3.4-7.5-7.5-7.5h-24.9
		c-2.8,0-5.1-2.2-5.3-5l-3-102.8l14.5,5.7c6.2,2.5,13.1,2.5,19.3,0L181,329c2.7-1.1,5.6-1.1,8.3,0l21.6,8.5c6.2,2.5,13.1,2.5,19.3,0
		l21.6-8.5c2.7-1.1,5.6-1.1,8.3,0l21.6,8.5c6.2,2.5,13.1,2.5,19.3,0l21.6-8.5c2.7-1.1,5.6-1.1,8.3,0l21.6,8.5
		c3.1,1.2,6.4,1.8,9.7,1.8s6.6-0.6,9.7-1.8l14.5-5.7L383.5,434.6z M386.9,315.5l-20.5,8.1c-2.7,1.1-5.6,1.1-8.3,0l-21.6-8.5
		c-6.2-2.5-13.1-2.5-19.3,0l-21.6,8.5c-2.7,1.1-5.6,1.1-8.3,0l-21.6-8.5c-6.2-2.5-13.1-2.5-19.3,0l-21.6,8.5c-2.7,1.1-5.6,1.1-8.3,0
		l-21.6-8.5c-6.2-2.5-13.1-2.5-19.3,0l-21.6,8.5c-2.7,1.1-5.6,1.1-8.3,0l-20.5-8.1l-1.1-36.6l16,6.3c6.2,2.5,13.1,2.5,19.3,0
		l21.6-8.5c2.7-1.1,5.6-1.1,8.3,0l21.6,8.5c6.2,2.5,13.1,2.5,19.3,0l21.6-8.5c2.7-1.1,5.6-1.1,8.3,0l21.6,8.5
		c6.2,2.5,13.1,2.5,19.3,0l21.6-8.5c2.7-1.1,5.6-1.1,8.3,0l21.6,8.5c3.1,1.2,6.4,1.8,9.7,1.8c3.3,0,6.6-0.6,9.7-1.8l16-6.3
		L386.9,315.5z M388.5,262.6l-22,8.7c-2.7,1.1-5.6,1.1-8.3,0l-21.6-8.5c-6.2-2.5-13.1-2.5-19.3,0l-21.6,8.5c-2.7,1.1-5.6,1.1-8.3,0
		l-21.6-8.5c-6.2-2.5-13.1-2.5-19.3,0l-21.6,8.5c-2.7,1.1-5.6,1.1-8.3,0l-21.6-8.5c-6.2-2.5-13.1-2.5-19.3,0l-21.6,8.5
		c-2.7,1.1-5.6,1.1-8.3,0l-22-8.7l-0.4-13.3c2.5-15.6,4.5-30.1,6-44.2l10.9,4.3c6.2,2.5,13.1,2.5,19.3,0l21.6-8.5
		c2.7-1.1,5.6-1.1,8.3,0l21.6,8.5c6.2,2.5,13.1,2.5,19.3,0l21.6-8.5c2.7-1.1,5.6-1.1,8.3,0l21.6,8.5c6.2,2.5,13.1,2.5,19.3,0
		l21.6-8.5c2.7-1.1,5.6-1.1,8.3,0l21.6,8.5c3.1,1.2,6.4,1.8,9.7,1.8s6.6-0.6,9.7-1.8l10.9-4.3c1.5,14,3.5,28.5,6,44.2L388.5,262.6z
		 M492.7,480.2c0,1.3-1.1,2.4-2.4,2.4h-43.1c-1.3,0-2.4-1.1-2.4-2.4v-25.7h48V480.2z M439.1,439.6c-4.1-69.7-13.7-158.5-35.6-193.5
		c-8.7-55.2-11.7-96-3.6-153.2c21.5,27.4,69.8,96.3,82.8,176.4c8.5,52.3,13.3,109.6,14.2,170.3H439.1z"/>
	<path class="st0" d="M181.2,74l30.2,5.9c14.8,2.9,29.7,4.3,44.6,4.3s29.8-1.4,44.6-4.3l30.2-5.9h0c9.2-1.8,15.8-9.9,15.8-19.2V33.6
		c0-10.8-8.8-19.6-19.6-19.6H184.9c-10.8,0-19.6,8.8-19.6,19.6v21.3C165.4,64.2,172,72.3,181.2,74z M180.4,33.6c0-2.5,2-4.6,4.6-4.6
		h142.1c2.5,0,4.6,2,4.6,4.6v21.3c0,2.2-1.6,4.1-3.7,4.5l-30.2,5.9c-27.7,5.4-55.8,5.4-83.4,0l-30.2-5.9c-2.1-0.4-3.7-2.3-3.7-4.5
		V33.6z"/>
</g>
</svg>
