<?xml version="1.0" encoding="utf-8"?>
<!-- Generator: Adobe Illustrator 23.0.2, SVG Export Plug-In . SVG Version: 6.00 Build 0)  -->
<svg version="1.1" id="Layer_1" xmlns="http://www.w3.org/2000/svg" xmlns:xlink="http://www.w3.org/1999/xlink" x="0px" y="0px"
	 viewBox="0 0 511.9 511.9" style="enable-background:new 0 0 511.9 511.9;" xml:space="preserve">
<style type="text/css">
	.st0{fill:#FFFEF5;}
</style>
<g>
	<g>
		<path class="st0" d="M444.8,222.2c-0.2,0-0.4-0.1-0.6-0.1c-12.1-1.6-21.9-7.6-29.9-18.3C374.7,151.1,394.7,13.7,395,12.3
			c0.9-5.9-3.1-11.3-9-12.2C385.5,0,384.9,0,384.4,0h-46.7c-5.5,0-10.1,4.2-10.7,9.7l-7.3,79.4c-2.1,24.1-20.4,43.7-44.2,47.7
			l-19.6,3.3l-19.6-3.3c-23.9-4.1-42-23.6-44.2-47.7l-7.3-79.4c-0.5-5.5-5.1-9.7-10.7-9.7h-46.6C121.8,0,117,4.8,117,10.7
			c0,0.5,0,1.2,0.1,1.7c0.2,1.4,22.2,137.2-17.4,190.3C91.3,214,80.8,220.3,67.9,222c-5.9,0.7-10,6.1-9.3,11.9c0,0.1,0,0.2,0,0.3
			c0.2,1.5,24,154.8,0.1,264.7c-1.3,5.8,2.3,11.4,8.1,12.7c0.7,0.2,1.5,0.2,2.2,0.2h373.3c5.9,0,10.7-4.8,10.7-10.7
			c0-0.9-0.1-1.6-0.3-2.5c-27.5-119.5,0.1-262.6,0.4-264.1C454.4,228.9,450.5,223.3,444.8,222.2z M429.5,490.7H82.4
			c17.6-96.5,3.8-214.6-1-249.6c14.2-4.1,26-12.7,35.6-25.5c37.8-50.8,27.8-157.5,23-194.1h24.6l6.3,69.7
			c3.1,33.8,28.5,61.2,62,66.8l21.4,3.5c1.2,0.2,2.3,0.2,3.5,0l21.4-3.5c33.4-5.7,58.9-33.1,62-66.8l6.3-69.7h24.7
			c-4.3,36.7-12.9,145,25,195.2c9.1,12.1,20.3,20.2,33.3,24.2C424.7,275,408.8,387.4,429.5,490.7z"/>
	</g>
</g>
</svg>
